<?xml version="1.0" encoding="utf-8"?>
<!-- Generator: Adobe Illustrator 17.0.0, SVG Export Plug-In . SVG Version: 6.00 Build 0)  -->
<!DOCTYPE svg PUBLIC "-//W3C//DTD SVG 1.1//EN" "http://www.w3.org/Graphics/SVG/1.1/DTD/svg11.dtd">
<svg version="1.1" id="Livello_1" xmlns="http://www.w3.org/2000/svg" xmlns:xlink="http://www.w3.org/1999/xlink" x="0px" y="0px"
	 width="296.249px" height="42.468px" viewBox="0 0 296.249 42.468" enable-background="new 0 0 296.249 42.468"
	 xml:space="preserve">
<path d="M9.933,24.713l6.689-11.029l6.683,11.029H9.933z M28.506,33.281h4.729L19.304,10.293h-5.36L0,33.281h4.738l3.109-5.119H25.4
	L28.506,33.281z"/>
<rect x="147.279" y="10.502" width="4.251" height="22.801"/>
<polygon points="203.007,29.902 203.007,23.096 218.437,23.096 218.437,19.725 203.007,19.725 203.007,13.834 225.183,13.834 
	225.183,10.471 198.76,10.471 198.76,33.272 226.131,33.272 226.131,29.902 "/>
<polygon points="187.677,10.501 175.85,24.361 163.956,10.501 158.907,10.501 158.907,33.303 163.169,33.303 163.169,14.537 
	175.79,29.277 177.944,26.808 177.927,26.793 188.479,14.517 188.479,33.303 192.722,33.303 192.722,10.501 "/>
<polygon points="139.519,10.455 110.199,10.455 110.199,13.808 122.735,13.808 122.735,33.303 126.982,33.303 126.982,13.808 
	139.519,13.808 "/>
<polygon points="100.323,10.484 89.286,21.215 89.23,21.215 78.187,10.484 72.952,10.484 87.059,24.322 87.059,33.303 
	91.317,33.303 91.317,24.432 105.555,10.484 "/>
<polygon points="63.741,10.372 63.741,29.473 43.602,10.372 38.22,10.372 38.22,33.303 42.472,33.303 42.472,14.219 62.717,33.303 
	67.987,33.303 67.987,10.372 "/>
<path d="M237.53,42.468c0,0,4.563-2.395,8.682-6.019c1.951-1.835,33.176-31.831,33.176-31.831s2.836-3.361,9.453-4.285
	c2.396-0.16,2.172-0.274,7.408-0.333c0,0-6.85,4.236-9.127,6.569c-1.285,1.28-33.51,32.057-33.51,32.057s-2.73,3.145-10.351,3.729
	C241.485,42.468,237.53,42.468,237.53,42.468"/>
<path d="M244.933,0.333c-2.397-0.16-2.172-0.274-7.403-0.333c0,0,6.848,4.236,9.127,6.569c0.557,0.565,7.035,6.761,14.147,13.562
	l4.869-4.667c-6.191-5.954-11.277-10.846-11.277-10.846S251.556,1.257,244.933,0.333 M287.571,36.449
	c-0.875-0.808-7.523-7.191-14.654-14.037l-4.85,4.666c6.563,6.271,12.096,11.548,12.096,11.548s2.729,3.145,10.348,3.729
	c1.789,0.113,5.738,0.113,5.738,0.113S291.679,40.073,287.571,36.449"/>
</svg>
