<?xml version="1.0" encoding="utf-8"?>
<!-- Generator: Adobe Illustrator 17.0.0, SVG Export Plug-In . SVG Version: 6.00 Build 0)  -->
<!DOCTYPE svg PUBLIC "-//W3C//DTD SVG 1.1//EN" "http://www.w3.org/Graphics/SVG/1.1/DTD/svg11.dtd">
<svg version="1.1" id="Livello_1" xmlns="http://www.w3.org/2000/svg" xmlns:xlink="http://www.w3.org/1999/xlink" x="0px" y="0px"
	 width="75.916px" height="11.338px" viewBox="0 0 75.916 11.338" enable-background="new 0 0 75.916 11.338" xml:space="preserve">
<path d="M6.065,10.938c-0.348,0.105-1.382,0.4-2.299,0.4C1.297,11.338,0,10.093,0,7.868c0-1.393,0.707-2.479,1.856-2.996
	c0.591-0.274,1.235-0.401,2.057-0.401c0.854,0,1.456,0.169,2.089,0.233c-0.085,0.39-0.18,1.202-0.19,1.676L5.464,6.412
	C5.379,5.621,5.252,5.326,4.947,5.146C4.62,4.956,4.198,4.851,3.512,4.851c-1.645,0-2.436,1.171-2.436,2.901
	c0,1.814,0.97,3.217,2.88,3.217c0.295,0,0.558-0.043,0.706-0.138c0.148-0.073,0.211-0.263,0.232-0.442
	c0.032-0.328,0.032-0.718,0.022-1.076C4.894,8.965,4.831,8.838,4.525,8.754C4.335,8.711,4.146,8.69,3.818,8.648l0.011-0.305
	c0.327,0,0.833,0.031,1.477,0.031c0.621,0,0.938-0.021,1.15-0.031L6.444,8.659C6.318,8.68,6.192,8.701,6.097,8.733
	c-0.201,0.063-0.254,0.2-0.265,0.506c-0.01,0.316-0.02,0.971,0,1.171c0.011,0.158,0.032,0.211,0.265,0.306L6.065,10.938z"/>
<path d="M11.485,6.992c-0.01,0.264-0.01,1.161-0.01,1.709l0.052,0.064c0.232,0.01,0.728,0.02,0.929-0.043
	c0.263-0.074,0.517-0.316,0.517-0.822c0-0.718-0.412-1.045-1.14-1.045l-0.285,0.043L11.485,6.992z M9.893,6.486
	c0.179,0,0.749,0.032,1.012,0.032c0.57,0,1.171-0.011,1.487-0.011c0.95,0,1.414,0.538,1.414,1.181c0,0.644-0.454,1.013-0.908,1.192
	l-0.01,0.063c0.264,0.422,0.875,1.203,1.266,1.583c0.274,0.285,0.443,0.316,0.854,0.379l-0.042,0.296
	c-0.338,0.01-1.054,0-1.329-0.137c-0.116-0.053-0.243-0.138-0.38-0.296c-0.295-0.337-0.801-1.086-1.086-1.497l-0.233-0.127
	c-0.105-0.011-0.316,0-0.431,0l-0.032,0.042c0,0.412,0,1.002,0.021,1.255c0.021,0.254,0.074,0.306,0.253,0.359
	c0.105,0.031,0.306,0.064,0.506,0.085l-0.01,0.295c-0.19,0-0.707-0.032-1.213-0.032c-0.444,0-0.992,0.032-1.16,0.032v-0.295
	c0.158-0.021,0.4-0.054,0.485-0.074c0.179-0.053,0.263-0.138,0.274-0.422c0.011-0.169,0.021-1.076,0.021-1.488
	c0-0.801,0-1.486-0.01-1.698c-0.011-0.211-0.074-0.295-0.254-0.337c-0.136-0.032-0.337-0.063-0.506-0.074L9.893,6.486z"/>
<path d="M19.427,8.943l0.031,0.043c0.074,0.01,0.232,0.01,0.539,0.01c0.19,0,0.442,0,0.547-0.01l0.033-0.053
	c-0.19-0.538-0.433-1.202-0.56-1.518l-0.042,0.01C19.848,7.805,19.585,8.49,19.427,8.943 M18.435,10.188
	c0.348-0.717,1.055-2.478,1.329-3.217c0.053-0.158,0.116-0.358,0.138-0.474c0.031,0.01,0.126,0.021,0.337,0.021
	c0.2,0,0.274-0.011,0.316-0.021l0.148,0.421c0.159,0.454,1.034,2.743,1.308,3.355c0.232,0.474,0.296,0.517,0.917,0.601l-0.01,0.306
	c-0.179,0-0.57-0.032-1.086-0.032c-0.591,0-0.981,0.032-1.15,0.032v-0.306c0.126-0.01,0.285-0.032,0.39-0.063
	c0.127-0.043,0.137-0.138,0.116-0.222c-0.105-0.327-0.285-0.781-0.421-1.118l-0.064-0.042c-0.116-0.011-0.39-0.011-0.749-0.011
	c-0.496,0-0.58,0-0.654,0.011l-0.095,0.074c-0.158,0.4-0.337,0.854-0.358,1.012c-0.01,0.138-0.01,0.232,0.221,0.296
	c0.095,0.02,0.243,0.042,0.401,0.063l-0.021,0.306c-0.148,0-0.633-0.032-1.086-0.032c-0.475,0-0.76,0.032-0.897,0.032v-0.306
	C18.045,10.79,18.172,10.758,18.435,10.188"/>
<path d="M25.871,6.486c0.242,0,0.664,0.032,1.097,0.032h0.506c0.031,0.084,0.084,0.158,0.284,0.411
	C28.539,7.9,29.931,9.576,30.3,9.998l0.032-0.01c0-1.033-0.011-2.173-0.032-2.7c-0.02-0.232-0.084-0.359-0.316-0.412
	c-0.126-0.031-0.338-0.053-0.559-0.084V6.486c0.189,0,0.643,0.032,1.119,0.032c0.442,0,0.854-0.032,0.96-0.032v0.306
	c-0.159,0.011-0.349,0.042-0.444,0.074c-0.2,0.074-0.242,0.19-0.254,0.39c-0.031,0.569-0.041,1.888-0.052,2.9
	c0,0.338,0.011,0.802,0.021,1.055c-0.169-0.021-0.506-0.021-0.664,0c-0.37-0.516-2.416-3.08-2.89-3.67h-0.032
	c-0.011,0.78,0,2.384,0.021,2.816c0.011,0.296,0.116,0.359,0.316,0.433c0.106,0.031,0.307,0.063,0.496,0.084l-0.01,0.306
	c-0.179,0-0.654-0.032-1.076-0.032c-0.517,0-0.823,0.032-1.013,0.032v-0.306c0.148-0.021,0.359-0.032,0.496-0.084
	c0.179-0.064,0.243-0.19,0.264-0.412c0.031-0.39,0.052-1.455,0.052-3.058c0-0.127-0.042-0.275-0.2-0.37
	c-0.147-0.074-0.337-0.127-0.676-0.158L25.871,6.486z"/>
<path d="M36.585,10.61c0.169,0.158,0.444,0.221,0.729,0.221c0.274,0,0.675-0.041,1.023-0.348c0.38-0.347,0.612-0.865,0.612-1.623
	c0-0.76-0.232-1.319-0.844-1.709c-0.338-0.222-0.717-0.296-1.203-0.296c-0.127,0-0.317,0.011-0.379,0.043l-0.074,0.126
	c-0.011,0.169-0.011,1.107-0.011,1.741c0,0.653,0,1.423,0.032,1.571L36.585,10.61z M34.814,6.486c0.158,0,0.77,0.032,1.055,0.032
	c0.443,0,0.844-0.021,1.571-0.021c0.665,0,1.265,0.179,1.689,0.516c0.485,0.433,0.727,1.013,0.727,1.709
	c0,1.002-0.476,1.614-0.971,1.951c-0.475,0.338-1.023,0.538-1.856,0.538c-0.57,0-1.404-0.042-1.962-0.042h-0.348v-0.305
	c0.179-0.011,0.475-0.043,0.601-0.074c0.148-0.032,0.243-0.095,0.264-0.359c0.021-0.465,0.021-1.002,0.021-1.677
	c0-0.443,0-1.245-0.021-1.529c-0.021-0.233-0.095-0.317-0.285-0.359c-0.116-0.021-0.306-0.053-0.506-0.074L34.814,6.486z"/>
<path d="M48.018,4.63c0.211,0,0.739,0.031,1.298,0.031h2.488c0.413,0,0.803-0.021,1.014-0.052l0.053,0.062
	c-0.074,0.254-0.138,0.908-0.159,1.488L52.374,6.18c-0.052-0.337-0.095-0.527-0.157-0.717c-0.085-0.232-0.211-0.348-0.475-0.358
	c-0.369-0.011-1.53-0.032-1.783,0l-0.126,0.189c-0.011,0.612-0.021,1.656-0.021,2.384l0.052,0.053c0.475,0,1.372,0,1.709-0.021
	c0.274-0.022,0.359-0.159,0.421-0.338c0.054-0.127,0.095-0.285,0.128-0.464l0.357,0.032c-0.031,0.242-0.062,0.685-0.062,1.055
	c0,0.368,0.01,0.716,0.021,1.012l-0.337,0.021c-0.043-0.222-0.085-0.338-0.128-0.464c-0.062-0.221-0.179-0.327-0.369-0.338
	c-0.38-0.021-1.497-0.031-1.74-0.021l-0.052,0.053c0,0.643,0,1.519,0.021,1.962c0.01,0.348,0.063,0.485,0.369,0.559
	c0.211,0.042,0.421,0.063,0.706,0.095l-0.01,0.306c-0.337,0-0.801-0.032-1.571-0.032c-0.644,0-0.991,0.032-1.361,0.032v-0.306
	c0.242-0.021,0.432-0.053,0.558-0.084c0.297-0.074,0.349-0.18,0.37-0.56c0.01-0.379,0.01-1.139,0.01-2.405
	c0-1.16,0-1.94-0.021-2.267c-0.01-0.348-0.042-0.443-0.274-0.528c-0.147-0.042-0.327-0.074-0.601-0.105L48.018,4.63z"/>
<path d="M56.34,6.486c0.201,0,0.727,0.032,1.161,0.032h1.666c0.369,0,0.739-0.011,0.918-0.043l0.042,0.053
	c-0.064,0.222-0.106,0.76-0.126,1.129l-0.306,0.021c-0.033-0.18-0.064-0.327-0.107-0.443c-0.052-0.2-0.157-0.295-0.411-0.317
	c-0.136-0.02-1.055-0.02-1.15,0l-0.105,0.148c0,0.496-0.01,1.119,0,1.466l0.043,0.053c0.39,0,0.832,0,1.096-0.01
	c0.201-0.011,0.254-0.138,0.296-0.254c0.031-0.095,0.053-0.2,0.074-0.316l0.326,0.031c-0.021,0.149-0.052,0.539-0.052,0.77
	c0,0.212,0.011,0.559,0.021,0.77l-0.328,0.011c-0.031-0.169-0.052-0.232-0.073-0.327c-0.042-0.116-0.105-0.222-0.264-0.232
	c-0.243-0.021-0.759-0.021-1.096-0.021L57.922,9.07c0,0.348,0,0.939,0.01,1.308c0.011,0.18,0.106,0.295,0.19,0.327
	c0.169,0.042,0.886,0.053,1.214,0.042c0.316-0.011,0.421-0.094,0.57-0.295c0.136-0.179,0.262-0.432,0.357-0.664l0.296,0.115
	c-0.032,0.233-0.189,0.823-0.317,1.108c-0.062,0.127-0.115,0.158-0.452,0.158c-0.634,0.011-1.003-0.021-2.31-0.021
	c-0.644,0-1.088,0.032-1.362,0.032v-0.306c0.243-0.021,0.549-0.053,0.697-0.084c0.19-0.054,0.232-0.137,0.252-0.412
	c0.011-0.179,0.011-0.897,0.011-1.74c0-0.686,0-1.255-0.011-1.393c-0.02-0.242-0.052-0.316-0.231-0.369
	c-0.116-0.031-0.338-0.063-0.516-0.084L56.34,6.486z"/>
<path d="M63.817,6.486c0.201,0,0.729,0.032,1.161,0.032h1.667c0.368,0,0.737-0.011,0.917-0.043l0.043,0.053
	c-0.064,0.222-0.107,0.76-0.128,1.129l-0.305,0.021c-0.032-0.18-0.064-0.327-0.106-0.443c-0.053-0.2-0.158-0.295-0.411-0.317
	c-0.138-0.02-1.055-0.02-1.149,0L65.4,7.066c0,0.496-0.01,1.119,0,1.466l0.042,0.053c0.39,0,0.834,0,1.096-0.01
	c0.202-0.011,0.254-0.138,0.297-0.254c0.031-0.095,0.052-0.2,0.073-0.316l0.327,0.031c-0.022,0.149-0.053,0.539-0.053,0.77
	c0,0.212,0.01,0.559,0.021,0.77l-0.327,0.011c-0.031-0.169-0.053-0.232-0.074-0.327c-0.041-0.116-0.105-0.222-0.264-0.232
	c-0.242-0.021-0.758-0.021-1.096-0.021L65.4,9.07c0,0.348,0,0.939,0.011,1.308c0.01,0.18,0.105,0.295,0.189,0.327
	c0.168,0.042,0.886,0.053,1.213,0.042c0.317-0.011,0.422-0.094,0.569-0.295c0.138-0.179,0.264-0.432,0.359-0.664l0.296,0.115
	c-0.032,0.233-0.19,0.823-0.316,1.108c-0.064,0.127-0.116,0.158-0.454,0.158c-0.634,0.011-1.002-0.021-2.31-0.021
	c-0.644,0-1.086,0.032-1.361,0.032v-0.306c0.242-0.021,0.549-0.053,0.696-0.084c0.19-0.054,0.233-0.137,0.254-0.412
	c0.01-0.179,0.01-0.897,0.01-1.74c0-0.686,0-1.255-0.01-1.393c-0.021-0.242-0.054-0.316-0.233-0.369
	c-0.116-0.031-0.337-0.063-0.517-0.084L63.817,6.486z"/>
<path d="M71.263,6.486c0.212,0,0.665,0.032,1.182,0.032c0.422,0,0.981-0.032,1.138-0.032v0.306c-0.21,0.021-0.368,0.053-0.473,0.063
	c-0.18,0.053-0.223,0.169-0.233,0.327c0,0.253-0.01,0.738-0.01,1.519c0,0.675,0.01,1.477,0.02,1.782
	c0.011,0.127,0.116,0.222,0.159,0.233c0.211,0.031,0.686,0.052,1.14,0.052c0.179,0,0.336-0.063,0.495-0.253
	c0.157-0.21,0.401-0.632,0.537-0.939l0.285,0.106c-0.062,0.338-0.295,1.118-0.442,1.371c-0.053,0.095-0.148,0.137-0.316,0.137
	c-0.487,0-1.942-0.042-2.343-0.042c-0.357,0-1.086,0.032-1.255,0.032v-0.295c0.254-0.032,0.475-0.043,0.613-0.085
	c0.178-0.042,0.231-0.137,0.242-0.306c0.021-0.211,0.031-0.854,0.031-1.835c0-0.791,0-1.15-0.01-1.35
	c-0.011-0.317-0.085-0.401-0.285-0.443c-0.095-0.032-0.306-0.063-0.475-0.074V6.486z"/>
<path d="M7.908,3.202c0.797-0.359,1.628-0.64,2.463-0.895c3.014-0.92,6.179-1.337,9.311-1.597c6.745-0.562,13.509-0.147,20.187,0.86
	c6.777,1.021,13.501,1.654,20.363,1.729c4.492,0.05,8.986,0.009,13.477,0.009h1.39c0.275,0,0.548-0.472,0.817-0.472
	c-10.531,0-21.101,0.297-31.557-1.187C38.657,0.84,33.063,0.04,27.286,0.003C21.181-0.036,14.418,0.233,8.727,2.73
	c-0.7,0.306-1.416,0.677-2.043,1.114C6.941,3.666,7.66,3.314,7.908,3.202"/>
</svg>
