<?xml version="1.0" encoding="utf-8"?>
<!-- Generator: Adobe Illustrator 17.0.0, SVG Export Plug-In . SVG Version: 6.00 Build 0)  -->
<!DOCTYPE svg PUBLIC "-//W3C//DTD SVG 1.1//EN" "http://www.w3.org/Graphics/SVG/1.1/DTD/svg11.dtd">
<svg version="1.1" id="Livello_1" xmlns="http://www.w3.org/2000/svg" xmlns:xlink="http://www.w3.org/1999/xlink" x="0px" y="0px"
	 width="45.427px" height="25.512px" viewBox="463.394 267.591 45.427 25.512"
	 enable-background="new 463.394 267.591 45.427 25.512" xml:space="preserve">
<polygon fill="#DD3C13" points="480.69,282.385 482.015,282.385 482.015,284.974 484.306,284.974 484.306,282.385 485.626,282.385 
	485.626,289.249 484.306,289.249 484.306,286.239 482.015,286.239 482.015,289.249 480.69,289.249 "/>
<polygon fill="#DD3C13" points="486.265,284.172 487.566,284.172 488.886,287.357 490.339,284.172 491.645,284.172 488.466,291.105 
	487.15,291.105 488.194,288.868 "/>
<path fill="#DD3C13" d="M494.749,285.217c-0.402,0-0.734,0.136-0.999,0.41c-0.265,0.275-0.395,0.632-0.395,1.074
	c0,0.45,0.13,0.816,0.395,1.094c0.265,0.279,0.597,0.417,0.999,0.417c0.389,0,0.716-0.142,0.981-0.424
	c0.268-0.284,0.4-0.644,0.4-1.082c0-0.436-0.13-0.794-0.391-1.071C495.476,285.355,495.147,285.217,494.749,285.217
	 M493.411,282.212v2.519c0.229-0.229,0.477-0.402,0.745-0.518c0.268-0.114,0.553-0.172,0.859-0.172c0.662,0,1.226,0.25,1.689,0.752
	c0.463,0.498,0.694,1.143,0.694,1.926c0,0.757-0.239,1.387-0.718,1.897c-0.479,0.508-1.045,0.763-1.702,0.763
	c-0.294,0-0.566-0.052-0.817-0.158c-0.252-0.104-0.503-0.273-0.75-0.51v0.538h-1.266v-7.037L493.411,282.212L493.411,282.212z"/>
<path fill="#DD3C13" d="M498.154,284.172h1.093v0.639c0.118-0.252,0.276-0.443,0.471-0.575c0.196-0.129,0.41-0.195,0.643-0.195
	c0.165,0,0.338,0.044,0.519,0.131l-0.396,1.096c-0.15-0.074-0.272-0.112-0.37-0.112c-0.196,0-0.362,0.121-0.496,0.363
	c-0.135,0.243-0.203,0.72-0.203,1.428l0.004,0.247v2.055h-1.265V284.172z"/>
<path fill="#DD3C13" d="M501.595,284.172h1.275v5.077h-1.275V284.172z M502.233,282.081c0.223,0,0.413,0.081,0.574,0.243
	c0.161,0.162,0.239,0.356,0.239,0.588c0,0.227-0.078,0.421-0.237,0.581c-0.158,0.159-0.346,0.241-0.568,0.241
	c-0.226,0-0.418-0.082-0.578-0.246c-0.16-0.163-0.24-0.361-0.24-0.594c0-0.224,0.079-0.415,0.237-0.576
	C501.818,282.16,502.009,282.081,502.233,282.081"/>
<path fill="#DD3C13" d="M506.208,285.217c-0.393,0-0.72,0.138-0.98,0.418c-0.261,0.277-0.391,0.635-0.391,1.071
	c0,0.438,0.133,0.798,0.397,1.082c0.266,0.282,0.592,0.424,0.979,0.424c0.4,0,0.732-0.138,0.995-0.417
	c0.264-0.278,0.395-0.644,0.395-1.094c0-0.442-0.131-0.799-0.395-1.074C506.945,285.353,506.611,285.217,506.208,285.217
	 M507.547,282.212h1.274v7.037h-1.274v-0.538c-0.249,0.237-0.498,0.406-0.748,0.51c-0.25,0.106-0.521,0.158-0.813,0.158
	c-0.656,0-1.223-0.255-1.702-0.763c-0.478-0.51-0.716-1.14-0.716-1.897c0-0.783,0.231-1.428,0.693-1.926
	c0.464-0.502,1.025-0.752,1.688-0.752c0.304,0,0.591,0.058,0.857,0.172c0.267,0.116,0.515,0.289,0.741,0.518V282.212z"/>
<path fill="#DD3C13" d="M476.114,276.25c0,1.247-1.01,2.257-2.257,2.257c-0.23,0-0.451-0.038-0.661-0.099
	c-0.718-0.23-1.484-0.353-2.278-0.353c-4.157,0-7.524,3.369-7.524,7.525s3.367,7.523,7.524,7.523c4.155,0,7.524-3.367,7.524-7.523
	c0-0.791-0.123-1.553-0.347-2.269c-0.067-0.212-0.106-0.437-0.106-0.671c0-1.246,1.012-2.257,2.258-2.257h5.649
	c1.662,0,3.009-1.347,3.009-3.009v-6.773c0-1.661-1.347-3.01-3.009-3.01h-6.772c-1.661,0-3.01,1.349-3.01,3.01L476.114,276.25
	L476.114,276.25z"/>
</svg>
