<?xml version="1.0" encoding="utf-8"?>
<!-- Generator: Adobe Illustrator 17.0.0, SVG Export Plug-In . SVG Version: 6.00 Build 0)  -->
<!DOCTYPE svg PUBLIC "-//W3C//DTD SVG 1.1//EN" "http://www.w3.org/Graphics/SVG/1.1/DTD/svg11.dtd">
<svg version="1.1" id="Livello_1" xmlns="http://www.w3.org/2000/svg" xmlns:xlink="http://www.w3.org/1999/xlink" x="0px" y="0px"
	 width="40.639px" height="8.389px" viewBox="0 0 40.639 8.389" enable-background="new 0 0 40.639 8.389" xml:space="preserve">
<path d="M2.066,1.717C2.321,0.918,2.338,0.79,1.871,0.714L1.667,0.68C1.616,0.612,1.625,0.501,1.718,0.467
	c0.34,0.017,0.629,0.025,0.986,0.025c0.349,0,0.612-0.008,1.02-0.025c0.06,0.034,0.077,0.17,0,0.212L3.494,0.714
	C3.001,0.79,2.967,0.875,2.704,1.717L1.709,4.879C1.463,5.669,1.437,5.847,1.871,5.89l0.263,0.025C2.185,5.975,2.16,6.094,2.1,6.128
	C1.684,6.111,1.395,6.102,1.03,6.102c-0.349,0-0.637,0.008-0.977,0.025c-0.068-0.042-0.068-0.161-0.009-0.212L0.307,5.89
	C0.715,5.847,0.8,5.745,1.072,4.879L2.066,1.717z M4.319,3.374C4.379,3.213,4.37,3.128,4.26,3.128c-0.161,0-0.527,0.306-0.791,0.595
	c-0.076,0-0.136-0.076-0.127-0.144c0.272-0.382,0.841-0.943,1.343-0.943c0.195,0,0.382,0.246,0.263,0.561L4.217,5.091
	C4.175,5.21,4.132,5.38,4.132,5.49c0,0.144,0.068,0.306,0.246,0.306c0.196,0,0.544-0.195,0.927-0.629
	c0.493-0.561,0.731-1.224,0.731-1.623c0-0.204-0.017-0.408-0.076-0.603c0.017-0.178,0.153-0.306,0.314-0.306
	c0.272,0,0.331,0.314,0.331,0.527c0,0.62-0.637,1.827-1.368,2.439c-0.646,0.535-1.122,0.62-1.326,0.62
	c-0.221,0-0.391-0.255-0.391-0.51c0-0.187,0.085-0.484,0.213-0.816L4.319,3.374z M9.92,3.706C9.895,4.173,9.648,4.989,9.019,5.635
	C8.493,6.179,8.034,6.221,7.804,6.221c-0.544,0-0.901-0.399-0.85-1.13C6.988,4.564,7.303,3.74,7.88,3.187
	c0.442-0.425,0.824-0.552,1.173-0.552C9.657,2.635,9.954,3.085,9.92,3.706z M8.374,3.298C7.88,3.961,7.549,4.972,7.524,5.422
	C7.507,5.72,7.626,5.966,7.872,5.966c0.187,0,0.399-0.076,0.671-0.442c0.374-0.501,0.773-1.623,0.79-2.074
	C9.342,3.187,9.291,2.89,8.994,2.89C8.824,2.89,8.62,2.966,8.374,3.298z M11.969,3.442l-0.365,1.071h0.042
	c0.255-0.476,0.671-1.156,0.892-1.436c0.196-0.255,0.408-0.442,0.62-0.442c0.297,0,0.34,0.289,0.34,0.416s-0.077,0.374-0.178,0.51
	c-0.102,0.127-0.238,0.136-0.272-0.042c-0.042-0.221-0.094-0.331-0.178-0.331c-0.077,0-0.17,0.085-0.297,0.255
	c-0.518,0.663-0.994,1.7-1.445,2.677c-0.034,0.068-0.077,0.102-0.145,0.102c-0.094,0-0.34-0.034-0.281-0.221
	c0.11-0.34,0.646-1.844,0.875-2.677c0.026-0.093,0.008-0.178-0.068-0.178c-0.221,0-0.45,0.238-0.604,0.442
	c-0.085,0.017-0.144-0.034-0.136-0.136c0.272-0.459,0.595-0.816,1.003-0.816C12.198,2.635,12.046,3.213,11.969,3.442z M15.233,4.08
	c0.009,0.544-0.008,1.164-0.127,1.87h0.034c0.281-0.416,0.527-0.943,0.714-1.462c0.178-0.493,0.306-1.351,0.314-1.572
	c0.017-0.246,0.145-0.263,0.204-0.263s0.17,0.034,0.238,0.076c0.051,0.034,0.076,0.076,0.076,0.17
	c0.009,0.212-0.221,1.309-0.986,2.592c-0.417,0.705-0.722,1.266-1.402,2.04c-0.629,0.722-1.054,0.858-1.326,0.858
	S12.53,8.21,12.53,7.998s0.153-0.365,0.34-0.365c0.085,0,0.17,0.051,0.229,0.136c0.026,0.042,0.102,0.153,0.238,0.153
	c0.11,0,0.263-0.068,0.467-0.238c0.213-0.178,0.586-0.714,0.748-1.275c0.119-0.433,0.178-1.215,0.17-1.938
	c-0.017-0.943-0.161-1.275-0.323-1.275c-0.17,0-0.314,0.289-0.493,0.646c-0.094,0.025-0.145-0.034-0.161-0.11
	c0.178-0.569,0.552-1.096,0.969-1.096C15.148,2.635,15.216,3.485,15.233,4.08z M24.438,0.994c0.051-0.153,0.034-0.178-0.119-0.187
	c-0.518-0.025-0.816-0.051-1.105-0.051c-0.841,0-1.394,0.212-1.657,0.442c-0.289,0.238-0.425,0.561-0.442,0.841
	c-0.017,0.348,0.187,0.51,0.45,0.51c0.11,0,0.229-0.042,0.272-0.042c0.068,0,0.178,0.136,0.178,0.255
	c-0.017,0.187-0.187,0.348-0.417,0.348c-0.493,0-0.799-0.569-0.782-0.986c0.026-0.442,0.195-0.816,0.544-1.147
	c0.569-0.535,1.419-0.62,1.955-0.62c0.569,0,1.062,0.068,1.632,0.119c0.527,0.051,1.054,0.11,1.657,0.11
	c0.178,0,0.323-0.076,0.34-0.357C26.954,0.093,27.031,0,27.141,0s0.238,0.093,0.229,0.28c-0.026,0.586-0.994,0.62-1.377,0.62
	c-0.255,0-0.578-0.034-0.731-0.034c-0.136,0-0.153,0.017-0.196,0.136l-1.351,4.029c-0.229,0.671-0.246,0.807,0.187,0.85l0.348,0.034
	c0.068,0.059,0.051,0.178-0.042,0.212c-0.518-0.017-0.816-0.025-1.207-0.025c-0.323,0-0.612,0.008-1.062,0.025
	c-0.068-0.042-0.059-0.161,0-0.212l0.382-0.051c0.417-0.059,0.501-0.085,0.748-0.824L24.438,0.994z M28.926,3.706
	c-0.026,0.467-0.272,1.283-0.901,1.929c-0.527,0.544-0.986,0.586-1.215,0.586c-0.544,0-0.901-0.399-0.85-1.13
	c0.034-0.527,0.349-1.351,0.927-1.904c0.442-0.425,0.824-0.552,1.173-0.552C28.663,2.635,28.96,3.085,28.926,3.706z M27.38,3.298
	c-0.493,0.663-0.824,1.674-0.85,2.125c-0.017,0.297,0.102,0.544,0.349,0.544c0.187,0,0.399-0.076,0.671-0.442
	c0.374-0.501,0.773-1.623,0.79-2.074C28.348,3.187,28.297,2.89,28,2.89C27.83,2.89,27.626,2.966,27.38,3.298z M30.44,5.371
	c-0.076,0.204-0.034,0.289,0.06,0.289c0.127,0,0.467-0.272,0.909-0.705c0.773-0.765,1.215-1.751,1.496-2.269
	c0.179-0.034,0.382,0.051,0.417,0.153c-0.085,0.229-0.637,1.623-0.994,2.635c-0.042,0.11-0.051,0.212,0.034,0.212
	c0.161,0,0.612-0.399,0.833-0.663c0.076-0.017,0.144,0.017,0.153,0.119c-0.221,0.408-1.037,1.079-1.487,1.079
	c-0.136,0-0.264-0.161-0.213-0.297l0.578-1.555L32.207,4.36c-0.612,0.773-1.666,1.861-2.125,1.861c-0.349,0-0.391-0.348-0.246-0.722
	l0.782-2.065c0.06-0.161,0.068-0.246,0-0.246c-0.161,0-0.603,0.374-0.807,0.586c-0.085,0.017-0.153-0.051-0.145-0.127
	c0.221-0.34,1.071-1.011,1.47-1.011c0.11,0,0.306,0.11,0.255,0.255L30.44,5.371z M36.746,3.136c0,0.34-0.331,0.399-0.417,0.399
	c-0.085,0-0.153-0.051-0.17-0.153c-0.026-0.212-0.017-0.467-0.297-0.467c-0.187,0-0.45,0.178-0.714,0.569
	c-0.28,0.416-0.544,1.105-0.569,1.759c-0.017,0.425,0.161,0.552,0.365,0.552c0.28,0,0.595-0.221,0.918-0.518
	c0.085-0.008,0.136,0.059,0.11,0.144c-0.331,0.433-0.867,0.799-1.402,0.799c-0.331,0-0.637-0.246-0.637-0.901
	c0-0.552,0.332-1.521,1.079-2.193c0.357-0.323,0.723-0.493,1.105-0.493C36.542,2.635,36.746,2.873,36.746,3.136z M39.449,0.076
	c-0.17,0.476-0.442,1.249-0.612,1.734l-0.875,2.541l0.017,0.017c0.595-0.841,1.037-1.181,1.343-1.402
	c0.306-0.221,0.578-0.331,0.807-0.331c0.374,0,0.51,0.272,0.51,0.569c0,0.586-0.357,1.445-0.663,1.989
	c-0.161,0.289-0.331,0.476-0.552,0.697c-0.281,0.28-0.51,0.331-0.62,0.331c-0.28,0-0.314-0.178-0.314-0.246
	c0-0.144,0.119-0.272,0.229-0.272c0.034,0,0.077,0.017,0.119,0.051c0.068,0.051,0.161,0.11,0.221,0.11
	c0.127,0,0.212-0.127,0.34-0.425c0.229-0.552,0.612-1.725,0.612-2.193c0-0.161-0.06-0.255-0.178-0.255
	c-0.119,0-0.297,0.102-0.459,0.229c-0.357,0.272-0.637,0.552-1.079,1.13c-0.383,0.51-0.807,1.334-1.028,1.768
	c-0.034,0.068-0.077,0.102-0.153,0.102c-0.094,0-0.314-0.025-0.246-0.221l1.615-4.777c0.187-0.561,0.229-0.68,0.094-0.773
	l-0.178-0.119c-0.017-0.042-0.017-0.076,0.026-0.11c0.136-0.059,0.697-0.178,0.994-0.195L39.449,0.076z"/>
</svg>
