<?xml version="1.0" encoding="utf-8"?>
<!-- Generator: Adobe Illustrator 17.0.0, SVG Export Plug-In . SVG Version: 6.00 Build 0)  -->
<!DOCTYPE svg PUBLIC "-//W3C//DTD SVG 1.1//EN" "http://www.w3.org/Graphics/SVG/1.1/DTD/svg11.dtd">
<svg version="1.1" id="Livello_1" xmlns="http://www.w3.org/2000/svg" xmlns:xlink="http://www.w3.org/1999/xlink" x="0px" y="0px"
	 width="108.079px" height="36.85px" viewBox="572.921 178 108.079 36.85" enable-background="new 572.921 178 108.079 36.85"
	 xml:space="preserve">
<path d="M611.92,192.427l-5.916,22.423h-7.591l4.392-14.267l-0.14-0.488l-0.612,0.247l-12.316,14.508h-3.847l1.582-14.029
	l-0.348-0.655c-0.43,0.163-2.141,2.442-5.121,6.834c-1.739,2.625-3.471,5.249-5.202,7.85h-3.88
	c4.96-6.957,9.976-14.434,15.05-22.423h7.761c-0.316,2.095-0.642,4.191-0.983,6.287c-0.501,3.473-0.633,5.351-0.386,5.626
	c0.55-0.275,2.271-2.128,5.16-5.561c1.745-2.121,3.489-4.232,5.232-6.352L611.92,192.427L611.92,192.427z"/>
<path d="M638.67,198.425c0,3.473-1.882,6.05-5.639,7.724c-2.804,1.264-6.214,1.898-10.231,1.898c-0.841,0-1.516-0.019-2.033-0.071
	l0.598-2.145c2.452,0,4.554-0.412,6.31-1.24c2.266-1.059,3.398-2.663,3.398-4.805c0-1.475-0.41-2.664-1.225-3.561
	c-0.817-0.897-1.973-1.348-3.467-1.348h-3.643l-5.397,19.973h-7.355l5.919-22.423h13.762c2.315,0,4.298,0.421,5.955,1.272
	C637.653,194.781,638.67,196.354,638.67,198.425"/>
<path d="M659.667,192.356l-6.05,22.494h-7.381l3.964-14.742c-1.398,0.763-2.719,1.386-3.964,1.857
	c-1.244,0.473-2.765,0.924-4.565,1.358l1.354-5.04c2.665-0.672,4.81-1.482,6.439-2.43c1.628-0.944,3.016-2.113,4.166-3.497
	L659.667,192.356L659.667,192.356z"/>
<path d="M677.663,192.356l-6.05,22.494h-7.381l3.964-14.742c-1.399,0.763-2.719,1.386-3.964,1.857
	c-1.244,0.473-2.766,0.924-4.565,1.358l1.354-5.04c2.664-0.672,4.81-1.482,6.438-2.43c1.628-0.944,3.016-2.113,4.167-3.497
	L677.663,192.356L677.663,192.356z"/>
<path d="M584.98,178.304l-0.856,3.164l-1.224-0.022l0.012-0.458c0.022-0.741-0.148-1.243-0.508-1.492
	c-0.3-0.216-0.833-0.329-1.618-0.329c-0.668,0-1.25,0.119-1.737,0.36c-0.62,0.306-0.941,0.756-0.941,1.355
	c0,0.482,0.511,0.867,1.493,1.137c1.839,0.501,2.759,0.759,2.798,0.768c1.011,0.433,1.515,1.061,1.515,1.914
	c0,1.094-0.816,1.946-2.431,2.583c-1.247,0.469-2.51,0.71-3.82,0.71c-0.931,0-2.099-0.194-3.511-0.586v-1.777
	c0.978,0.671,2.137,1.011,3.437,1.011c0.692,0,1.327-0.119,1.888-0.345c0.782-0.289,1.169-0.74,1.169-1.328
	c0-0.508-0.494-0.871-1.475-1.069c-1.834-0.378-2.738-0.559-2.749-0.559c-0.989-0.365-1.484-0.982-1.484-1.857
	c0-1.36,0.815-2.325,2.428-2.901c1.083-0.382,2.449-0.583,4.138-0.583C582.466,178,583.64,178.106,584.98,178.304"/>
<path d="M594.977,178.26l-0.309,1.166c-1.139,0-1.87,0.054-2.182,0.164c-0.572,0.216-0.974,0.759-1.198,1.634l-1.737,6.699h-3.253
	c0.379-1.389,0.77-2.782,1.164-4.177c0.481-1.697,0.804-3.091,0.964-4.173l-0.046-0.102c-0.071-0.032-1.097-0.045-3.059-0.045
	l0.313-1.166H594.977z"/>
<path d="M602.215,187.923h-3.052l-0.396-7.407l-0.016-0.348c-0.022-0.157-0.088-0.238-0.195-0.25
	c-0.235,0.147-0.802,0.865-1.689,2.131c-0.886,1.269-1.346,2.004-1.377,2.21c0.068,0.093,0.331,0.151,0.773,0.181
	c0.32,0.021,0.743,0.027,1.268,0.018h0.912l-0.343,1.068h-0.983c-0.935-0.03-1.627,0.031-2.078,0.193
	c-0.356,0.128-0.711,0.383-1.071,0.773c-0.782,0.882-1.212,1.361-1.286,1.431h-1.857l7.031-9.663h3.761L602.215,187.923z"/>
<path d="M613.872,178.558l-0.539,1.314c-1.054-0.311-1.923-0.469-2.593-0.469c-1.354,0-2.496,0.487-3.4,1.476
	c-0.915,0.986-1.368,2.162-1.368,3.537c0,0.668,0.127,1.233,0.389,1.668c0.33,0.53,0.816,0.791,1.444,0.791
	c0.567,0,1.069-0.269,1.513-0.805c0.427-0.511,0.641-1.056,0.641-1.627c0-0.48-0.173-0.809-0.519-0.991
	c-0.249-0.122-0.643-0.178-1.172-0.158l0.388-0.962h4.709l-1.168,4.88c-1.689,0.467-3.045,0.711-4.106,0.711
	c-1.498,0-2.695-0.308-3.587-0.906c-1.057-0.712-1.585-1.777-1.585-3.196c0-1.808,0.897-3.234,2.684-4.276
	c1.517-0.891,3.239-1.329,5.183-1.329C611.96,178.216,612.98,178.325,613.872,178.558"/>
<path d="M624.91,178.26l-0.239,1.166c-3.639,0-5.495,0.016-5.593,0.045c-0.062,0.068-0.207,0.481-0.439,1.249
	c-0.23,0.757-0.344,1.216-0.344,1.351l0.032,0.142c0.056,0.041,0.51,0.063,1.354,0.072h2.381h1.554l-0.33,1.234
	c-0.264,0-0.658-0.008-1.193-0.028c-0.544-0.019-0.944-0.028-1.205-0.028c-1.171,0-2.032,0.19-2.561,0.555
	c-0.709,0.491-1.065,1.375-1.065,2.67h5.672l-0.266,1.235h-9.201l2.652-9.663L624.91,178.26L624.91,178.26z"/>
<path d="M641.866,180.859c0,1.494-0.795,2.604-2.397,3.335c-1.192,0.542-2.639,0.816-4.35,0.816c-0.355,0-0.642-0.011-0.865-0.03
	l0.259-0.924c1.034,0,1.926-0.181,2.677-0.539c0.955-0.45,1.438-1.148,1.438-2.074c0-0.626-0.176-1.146-0.519-1.531
	c-0.349-0.385-0.836-0.577-1.473-0.577h-1.548l-2.299,8.609l-3.116-0.01l2.516-9.674h5.847c0.983,0,1.833,0.182,2.532,0.551
	C641.432,179.28,641.866,179.957,641.866,180.859"/>
<path d="M646.919,178.275l-2.548,9.648h-3.103l1.808-6.998c0.105-0.426,0.162-0.743,0.162-0.938c0-0.386-0.162-0.631-0.491-0.726
	c-0.139-0.051-0.461-0.08-0.965-0.08l0.356-0.921L646.919,178.275z"/>
<path d="M656.675,187.923h-3.045l-0.401-7.407l-0.011-0.348c-0.02-0.157-0.086-0.238-0.192-0.25
	c-0.242,0.147-0.808,0.865-1.693,2.131c-0.886,1.269-1.348,2.004-1.379,2.21c0.068,0.093,0.329,0.151,0.777,0.181
	c0.316,0.021,0.738,0.027,1.263,0.018h0.914l-0.347,1.068h-0.983c-0.932-0.03-1.624,0.031-2.071,0.193
	c-0.36,0.128-0.711,0.383-1.073,0.773c-0.787,0.882-1.212,1.361-1.286,1.431h-1.859l7.034-9.663h3.76L656.675,187.923z"/>
<path d="M669.614,178.26l-2.76,9.663h-2.843c-1.039-1.92-2.121-4.127-3.212-6.593c-0.2,0.152-0.591,1.18-1.174,3.108
	c-0.338,1.162-0.665,2.321-0.988,3.485h-1.767l2.801-9.663h3.077c1.003,2.402,2.004,4.334,3.03,5.804
	c0.246-0.255,0.615-1.165,1.093-2.758c0.286-1.018,0.584-2.034,0.885-3.046H669.614z"/>
<path d="M681,181.278c0,1.757-0.816,3.322-2.432,4.707c-1.559,1.304-3.222,1.959-5.012,1.959c-1.338,0-2.39-0.367-3.174-1.08
	c-0.834-0.754-1.24-1.78-1.24-3.086c0-1.052,0.327-2.099,0.997-3.152c0.642-0.996,1.425-1.786,2.369-2.366h2.627
	c-0.784,0.812-1.434,1.733-1.971,2.766c-0.638,1.187-0.951,2.259-0.951,3.2c0,1.741,0.677,2.603,2.011,2.603
	c0.93,0,1.746-0.563,2.438-1.684c0.603-0.993,0.909-1.975,0.909-2.962c0-1.467-0.578-2.201-1.72-2.201
	c-0.231,0-0.482,0.022-0.749,0.073v-0.885l3.347-1.122c0.741,0.195,1.352,0.587,1.83,1.195C680.761,179.847,681,180.53,681,181.278"
	/>
</svg>
