<?xml version="1.0" encoding="utf-8"?>
<!-- Generator: Adobe Illustrator 17.0.0, SVG Export Plug-In . SVG Version: 6.00 Build 0)  -->
<!DOCTYPE svg PUBLIC "-//W3C//DTD SVG 1.1//EN" "http://www.w3.org/Graphics/SVG/1.1/DTD/svg11.dtd">
<svg version="1.1" id="Livello_1" xmlns="http://www.w3.org/2000/svg" xmlns:xlink="http://www.w3.org/1999/xlink" x="0px" y="0px"
	 width="74.434px" height="11.339px" viewBox="0 0 74.434 11.339" enable-background="new 0 0 74.434 11.339" xml:space="preserve">
<path d="M4.307,4.762c-0.245,0-0.407-0.003-0.502-0.026C3.711,4.709,3.69,4.682,3.686,4.599c0-0.08,0.035-0.205,0.088-0.388
	l0.984-3.219c0.119-0.364,0.124-0.419,0.674-0.427c1.173,0.004,1.807,0.576,1.811,1.616L7.242,2.248
	C7.202,3.773,5.756,4.762,4.307,4.762 M7.949,9.123c-0.913-0.103-1.05-0.5-1.378-1.445c-0.253-0.744-0.52-1.67-0.702-2.428
	L5.844,5.088c0.003-0.094,0.03-0.114,0.168-0.137c1.078-0.186,2.443-1.078,2.445-2.52c0-0.595-0.158-1.182-0.658-1.625
	c-0.5-0.457-1.324-0.739-2.677-0.739c-0.787,0-1.59,0.013-2.393,0.113c-0.101,0.043-0.14,0.138-0.14,0.23l0.046,0.168l0.008,0.013
	l0.55,0.057C3.458,0.685,3.565,0.717,3.57,0.97c0,0.208-0.089,0.563-0.276,1.157L1.649,7.384c-0.455,1.438-0.575,1.551-1.24,1.651
	L0.09,9.078L0.083,9.085L0,9.282l0.101,0.204L0.11,9.492l0.01-0.001c0.435-0.029,0.912-0.043,1.488-0.043
	c0.561,0,1.095,0.014,1.685,0.043h0.009L3.31,9.486c0.075-0.046,0.116-0.144,0.117-0.24L3.374,9.088L3.366,9.079L3.017,9.035
	C2.613,8.976,2.475,8.888,2.472,8.599C2.471,8.362,2.58,7.986,2.762,7.402l0.547-1.743c0.132-0.4,0.163-0.42,0.9-0.428
	c0.445,0.007,0.495,0.032,0.672,0.68C5.106,6.783,5.36,7.599,5.712,8.64c0.238,0.715,0.66,0.855,1.337,0.851
	c0.421,0,0.662-0.015,0.888-0.043l0.015-0.002L7.96,9.433L8.014,9.25L7.949,9.123z M29.913,7.127l-0.022-0.021L29.913,7.127
	c0.25-0.271,0.427-0.328,0.512-0.328c0.108,0.002,0.127,0.068,0.13,0.131c0.001,0.051-0.052,0.258-0.264,0.456
	c-0.245,0.231-0.448,0.359-0.866,0.493C29.514,7.677,29.669,7.39,29.913,7.127 M31.039,6.972c-0.001-0.199-0.174-0.451-0.473-0.452
	c-0.211,0-0.494,0.059-0.863,0.343c-0.774,0.599-1.058,1.461-1.059,1.916c0.001,0.349,0.153,0.767,0.6,0.768h0.004
	c0.302,0,0.713-0.12,1.144-0.651l0.005-0.007l0.002-0.008l0.002-0.029l-0.123-0.126h-0.012l-0.009,0.008
	c-0.31,0.268-0.478,0.4-0.717,0.4c-0.171,0-0.305-0.143-0.307-0.371c0-0.265,0.045-0.481,0.091-0.599
	C30.327,7.881,31.033,7.535,31.039,6.972 M28.225,6.52c-0.15,0-0.276,0.119-0.29,0.281c0.048,0.168,0.063,0.334,0.063,0.502
	c0,0.319-0.193,0.863-0.597,1.321c-0.313,0.355-0.6,0.512-0.742,0.51c-0.126,0-0.172-0.11-0.174-0.223
	c0-0.083,0.034-0.225,0.069-0.319l0.604-1.568l0.033-0.171c0-0.192-0.133-0.332-0.28-0.333c-0.437,0.002-0.907,0.472-1.135,0.793
	l-0.007,0.028l0.137,0.14h0.014l0.008-0.011c0.212-0.236,0.526-0.487,0.632-0.481l0.048,0.044l-0.027,0.118l-0.486,1.258
	c-0.106,0.275-0.177,0.522-0.177,0.685c0,0.222,0.145,0.449,0.354,0.453c0.176,0,0.577-0.075,1.115-0.521
	c0.611-0.515,1.141-1.51,1.143-2.039C28.53,6.81,28.483,6.525,28.225,6.52 M25.246,6.941c0.049-0.12,0.071-0.193,0.071-0.248
	l-0.036-0.094L25.147,6.52c-0.249,0.001-0.789,0.265-1.182,0.714l-0.011,0.041l0.123,0.128l0.012,0.002L24.1,7.396
	c0.345-0.287,0.535-0.369,0.562-0.365l0.008,0.012l-0.022,0.079l0.028,0.011l-0.029-0.011l-0.892,2.129l-0.02,0.088l0.053,0.133
	l0.136,0.075c0.509-0.007,1.224-0.636,1.342-0.854l-0.13-0.164l-0.017-0.001l-0.01,0.011c-0.23,0.271-0.613,0.516-0.707,0.51
	L24.39,9.021l0.019-0.084L25.246,6.941z M25.274,5.071c-0.302,0.004-0.404,0.312-0.404,0.475c0,0.128,0.075,0.29,0.277,0.291
	c0.234-0.002,0.395-0.237,0.396-0.467C25.542,5.206,25.453,5.072,25.274,5.071 M23.158,6.52c-0.101,0.001-0.329,0.059-0.539,0.239
	c-0.306,0.261-0.434,0.476-0.434,0.761c0.001,0.129,0.066,0.37,0.252,0.67c0.175,0.278,0.255,0.495,0.255,0.602
	c-0.001,0.21-0.16,0.369-0.306,0.369c-0.164,0.003-0.375-0.167-0.463-0.27l-0.118-0.047L21.69,8.888
	c-0.083,0.09-0.116,0.177-0.115,0.255c0.001,0.18,0.175,0.402,0.459,0.404c0.274,0,0.541-0.094,0.731-0.261
	c0.265-0.229,0.367-0.497,0.375-0.696l0.001-0.054c0-0.287-0.108-0.467-0.273-0.744c-0.202-0.342-0.234-0.482-0.234-0.623
	c0.001-0.092,0.074-0.251,0.257-0.251c0.207,0.002,0.285,0.095,0.408,0.216l0.121,0.071l0.042-0.007
	c0.07-0.035,0.149-0.12,0.149-0.248C23.61,6.758,23.438,6.521,23.158,6.52 M21.373,8.597L21.341,8.6l-0.012,0.001l-0.008,0.01
	c-0.194,0.24-0.543,0.471-0.636,0.465l-0.006-0.012l0.02-0.077c0.02-0.055,0.526-1.201,0.653-1.555
	c0.057-0.164,0.115-0.381,0.115-0.502c0-0.243-0.138-0.41-0.424-0.41c-0.522,0.005-1.164,0.696-1.657,1.412l0.421-1.081l0.023-0.119
	c0-0.124-0.094-0.212-0.235-0.212c-0.368,0.001-0.799,0.296-1.072,0.665l-0.007,0.031l0.117,0.124h0.011l0.009-0.007
	c0.228-0.202,0.475-0.346,0.62-0.344l0.012,0.026l-0.021,0.093c-0.034,0.099-0.78,2.123-0.815,2.215l-0.014,0.07
	c0.008,0.145,0.18,0.151,0.246,0.154h0.009l0.145-0.101c0.415-0.773,0.703-1.32,1.073-1.781c0.38-0.482,0.806-0.831,0.945-0.824
	l0.082,0.138c0.001,0.129-0.09,0.376-0.145,0.501c-0.163,0.353-0.422,1.041-0.569,1.384C20.074,9.215,20.05,9.266,20.05,9.34
	c0.005,0.109,0.112,0.201,0.199,0.207c0.403-0.003,0.96-0.344,1.235-0.803l0.004-0.007V8.729
	C21.488,8.677,21.466,8.597,21.373,8.597 M17.663,7.224c-0.012,0.36-0.345,1.292-0.648,1.697c-0.223,0.298-0.385,0.353-0.531,0.353
	c-0.167,0-0.256-0.154-0.259-0.374l0.002-0.042c0.02-0.364,0.293-1.2,0.697-1.741L16.9,7.098l0.024,0.018
	c0.201-0.269,0.357-0.324,0.488-0.324c0.202,0,0.248,0.182,0.251,0.389V7.224z M17.462,6.52c-0.297-0.001-0.623,0.11-0.992,0.465
	c-0.484,0.465-0.746,1.149-0.775,1.594l-0.004,0.113c0,0.545,0.3,0.854,0.738,0.855h0.006c0.196,0,0.584-0.044,1.021-0.494
	c0.525-0.542,0.731-1.221,0.753-1.616l-0.03-0.001l0.03,0.001l0.002-0.08C18.21,6.876,17.952,6.521,17.462,6.52 M14.514,8.692
	c-0.295,0.461-0.683,0.555-0.76,0.554C13.659,9.248,13.556,9.162,13.52,9.1l-0.022-0.079l0.017-0.085l-0.029-0.01l0.029,0.01
	l0.725-2.034L14.4,6.89c0.291,0.003,0.523,0.162,0.524,0.496C14.924,7.691,14.848,8.176,14.514,8.692 M14.54,6.618
	c-0.101,0-0.172,0.008-0.222,0.012l0.134-0.395L14.45,6.227c-0.034-0.104-0.187-0.151-0.311-0.154l-0.138,0.039l-0.215,0.567
	c-0.339,0.092-0.62,0.212-0.866,0.387l-0.019,0.063l0.104,0.127l0.009,0.001l0.009-0.005c0.271-0.136,0.427-0.205,0.646-0.269
	l-1.287,3.612c-0.11,0.292-0.12,0.428-0.503,0.499l-0.155,0.029l-0.063,0.107l0.049,0.1l0.009,0.009l0.012-0.001
	c0.47-0.013,0.998-0.043,1.53-0.043l0.082-0.112l-0.028-0.09l-0.008-0.011l-0.301-0.043c-0.127-0.025-0.158-0.036-0.161-0.124
	c-0.001-0.081,0.042-0.228,0.129-0.475l0.289-0.829l0.084-0.106c0.092,0.027,0.151,0.042,0.216,0.042
	c0.035-0.001,0.573-0.029,1.025-0.408c0.538-0.453,0.938-1.029,0.938-1.689C15.526,6.756,14.867,6.619,14.54,6.618 M12.161,8.59
	l0.001-0.056c0.001-0.286-0.108-0.466-0.273-0.742c-0.202-0.342-0.234-0.482-0.234-0.623c0.001-0.092,0.074-0.251,0.257-0.251
	c0.207,0.002,0.285,0.095,0.407,0.216l0.122,0.071l0.042-0.007c0.071-0.035,0.148-0.121,0.149-0.248
	c-0.001-0.192-0.173-0.429-0.452-0.43c-0.102,0.001-0.33,0.059-0.54,0.239c-0.306,0.261-0.433,0.476-0.433,0.761
	c0,0.129,0.066,0.37,0.251,0.67c0.175,0.278,0.256,0.495,0.255,0.602c0,0.21-0.16,0.369-0.306,0.369
	c-0.165,0.003-0.375-0.167-0.462-0.27l-0.119-0.047l-0.114,0.044l-0.116,0.255c0,0.18,0.175,0.402,0.459,0.404
	c0.274,0,0.541-0.094,0.73-0.261C12.051,9.057,12.153,8.789,12.161,8.59 M9.618,7.127L9.596,7.106L9.618,7.127
	c0.25-0.271,0.427-0.328,0.511-0.328c0.108,0.002,0.128,0.069,0.131,0.131c0.001,0.051-0.053,0.258-0.265,0.456
	C9.75,7.617,9.549,7.745,9.13,7.879C9.218,7.677,9.373,7.39,9.618,7.127 M10.743,6.972c0-0.199-0.173-0.451-0.473-0.452
	c-0.21,0-0.493,0.059-0.862,0.343C8.634,7.462,8.349,8.324,8.349,8.779c0,0.349,0.153,0.767,0.601,0.768h0.003
	c0.303,0,0.713-0.12,1.144-0.651l0.005-0.007l0.002-0.008l0.003-0.029L9.983,8.726H9.971L9.963,8.734
	c-0.312,0.268-0.48,0.4-0.719,0.4c-0.171,0-0.305-0.144-0.306-0.371c-0.001-0.265,0.045-0.481,0.09-0.6
	C10.031,7.881,10.738,7.535,10.743,6.972"/>
<path d="M43.785,0.915l-0.094-0.193l-0.008-0.005l-0.008,0.001c-0.576,0.026-0.98,0.04-1.516,0.04c-0.562,0-0.993-0.014-1.529-0.04
	c-0.11,0.04-0.151,0.138-0.151,0.226l0.045,0.151l0.008,0.01l0.34,0.053c0.395,0.07,0.528,0.144,0.53,0.407
	c0.001,0.214-0.099,0.555-0.267,1.098L40.6,4.376c-0.098,0.268-0.054,0.256-0.665,0.266h-3.453c-0.163,0-0.27-0.003-0.329-0.016
	l-0.067-0.064c-0.001-0.038,0.018-0.102,0.046-0.194l0.536-1.687c0.425-1.301,0.455-1.388,1.193-1.523l0.309-0.053l0.007-0.006
	l0.089-0.194l-0.094-0.183l-0.009-0.005l-0.008,0.001c-0.549,0.026-0.954,0.04-1.516,0.04c-0.549,0-0.993-0.014-1.516-0.04
	c-0.111,0.036-0.16,0.122-0.159,0.209l0.053,0.166l0.008,0.012l0.327,0.053c0.406,0.071,0.545,0.146,0.548,0.414
	c0,0.213-0.1,0.554-0.271,1.091l-1.53,4.865c-0.426,1.338-0.535,1.454-1.152,1.534l-0.311,0.041l-0.007,0.008l-0.077,0.19
	l0.095,0.185l0.008,0.006l0.01-0.001c0.417-0.026,0.861-0.04,1.398-0.04c0.562,0,1.006,0.014,1.646,0.04h0.009l0.008-0.004
	l0.109-0.22l-0.048-0.153l-0.008-0.011L35.36,9.062c-0.367-0.041-0.489-0.121-0.493-0.39c-0.001-0.224,0.1-0.58,0.271-1.126
	l0.641-2.027c0.102-0.276,0.046-0.283,0.468-0.293h3.557c0.199,0,0.329,0.002,0.404,0.018l0.086,0.083
	c0.001,0.044-0.019,0.114-0.049,0.213l-0.627,1.988c-0.425,1.338-0.548,1.481-1.151,1.534l-0.429,0.041L38.03,9.111L37.953,9.3
	l0.096,0.186l0.008,0.005h0.009c0.536-0.026,0.967-0.04,1.515-0.04c0.563,0,0.981,0.014,1.596,0.04h0.008l0.008-0.005l0.109-0.207
	l-0.046-0.162l-0.008-0.013l-0.369-0.042c-0.366-0.048-0.489-0.126-0.492-0.394c-0.001-0.222,0.101-0.576,0.271-1.122l1.516-4.865
	c0.413-1.3,0.468-1.401,1.193-1.523l0.314-0.051L43.785,0.915z M61.289,0.731c-0.193,0.002-0.373,0.165-0.537,0.378
	c-0.164,0.207-0.451,0.671-0.662,1.049l0.245-0.718c0.03-0.093,0.076-0.251,0.076-0.396c0-0.156-0.064-0.312-0.267-0.313
	c-0.357,0.002-0.629,0.309-0.856,0.69l-0.005,0.03l0.118,0.131l0.033-0.003l0.012-0.002l0.007-0.009
	c0.123-0.167,0.313-0.357,0.474-0.353l0.034,0.053l-0.008,0.056c-0.189,0.686-0.631,1.929-0.723,2.211l-0.009,0.056
	c0.01,0.152,0.199,0.165,0.27,0.167h0.003l0.143-0.101c0.374-0.809,0.767-1.666,1.192-2.208c0.103-0.141,0.183-0.203,0.222-0.2
	c0.036-0.006,0.083,0.065,0.117,0.25l0.128,0.137l0.151-0.089c0.09-0.121,0.153-0.325,0.154-0.44
	C61.601,1,61.564,0.733,61.289,0.731 M58.262,1.597c-0.246,0.232-0.449,0.36-0.867,0.493c0.089-0.201,0.244-0.488,0.488-0.752
	l-0.022-0.02l0.023,0.02c0.249-0.271,0.426-0.328,0.512-0.327c0.107,0.002,0.126,0.069,0.13,0.13
	C58.527,1.192,58.473,1.4,58.262,1.597 M58.537,0.732c-0.212,0-0.494,0.059-0.864,0.343c-0.774,0.598-1.058,1.462-1.058,1.916
	c0,0.349,0.153,0.766,0.599,0.767h0.004c0.303,0,0.714-0.12,1.145-0.651l0.005-0.006l0.001-0.008l0.003-0.029l-0.124-0.126h-0.012
	l-0.008,0.007c-0.311,0.268-0.479,0.401-0.718,0.4c-0.171,0-0.305-0.142-0.307-0.37c0-0.266,0.046-0.481,0.091-0.599
	c1.004-0.283,1.709-0.629,1.716-1.192C59.009,0.986,58.836,0.732,58.537,0.732 M56.115,2.809l-0.034,0.004l-0.013,0.001
	l-0.006,0.009c-0.196,0.24-0.544,0.471-0.637,0.466l-0.006-0.014l0.02-0.077c0.021-0.053,0.527-1.201,0.654-1.554
	c0.064-0.164,0.114-0.383,0.115-0.502c-0.001-0.244-0.145-0.41-0.424-0.411c-0.461,0.003-0.964,0.458-1.588,1.415l0.189-0.458
	c0.07-0.174,0.146-0.394,0.146-0.581c0-0.203-0.102-0.375-0.379-0.376c-0.525,0.005-1.133,0.666-1.627,1.433l0.42-1.102l0.024-0.123
	c0-0.12-0.087-0.207-0.221-0.208c-0.547,0-0.93,0.325-1.111,0.671l-0.004,0.027l0.13,0.122h0.015l0.01-0.01
	c0.136-0.173,0.382-0.377,0.595-0.375l0.037,0.052l-0.018,0.105c-0.026,0.101-0.781,2.156-0.8,2.211l-0.015,0.071
	c0.008,0.145,0.181,0.151,0.247,0.153h0.009l0.144-0.1c0.408-0.774,0.688-1.32,1.051-1.773c0.381-0.476,0.786-0.838,0.953-0.833
	l0.073,0.108c0.002,0.17-0.137,0.478-0.157,0.534l-0.696,1.84l-0.016,0.071c0.009,0.145,0.183,0.151,0.248,0.153l0.153-0.099
	c0.429-0.774,0.745-1.327,1.102-1.774c0.375-0.485,0.722-0.839,0.895-0.833l0.082,0.139c0.001,0.129-0.096,0.376-0.145,0.502
	c-0.14,0.358-0.422,1.039-0.569,1.383c-0.147,0.352-0.17,0.401-0.171,0.475c0.006,0.109,0.112,0.201,0.199,0.207
	c0.403-0.002,0.962-0.343,1.236-0.801l0.003-0.008V2.941C56.228,2.889,56.207,2.809,56.115,2.809 M51.209,2.809l-0.033,0.003
	l-0.012,0.002l-0.007,0.009c-0.196,0.24-0.543,0.471-0.637,0.466l-0.006-0.013l0.021-0.078c0.019-0.053,0.526-1.201,0.653-1.555
	c0.065-0.164,0.113-0.381,0.114-0.502c-0.001-0.243-0.144-0.409-0.424-0.41c-0.46,0.003-0.961,0.457-1.586,1.413l0.188-0.456
	l-0.029-0.011l0.029,0.011c0.071-0.174,0.146-0.394,0.146-0.582c0-0.202-0.102-0.374-0.378-0.375
	c-0.526,0.005-1.135,0.666-1.628,1.433l0.419-1.102l0.025-0.123c0-0.119-0.087-0.207-0.221-0.208c-0.548,0-0.931,0.325-1.11,0.671
	l-0.005,0.029l0.131,0.12h0.014l0.01-0.01c0.136-0.173,0.381-0.378,0.594-0.375l0.038,0.052l-0.018,0.105
	c-0.027,0.101-0.78,2.157-0.801,2.211l-0.015,0.07c0.009,0.145,0.181,0.152,0.247,0.154h0.008l0.146-0.1
	c0.408-0.774,0.689-1.32,1.051-1.773c0.382-0.476,0.787-0.838,0.953-0.833l0.074,0.107C49.161,1.33,49.022,1.638,49,1.694
	l-0.695,1.84l-0.014,0.07c0.008,0.145,0.18,0.152,0.246,0.154l0.154-0.099c0.428-0.774,0.744-1.327,1.101-1.774
	c0.374-0.485,0.723-0.839,0.896-0.833l0.082,0.139c0,0.129-0.095,0.376-0.146,0.502c-0.139,0.358-0.42,1.039-0.568,1.383
	c-0.147,0.352-0.171,0.401-0.172,0.475c0.006,0.11,0.113,0.201,0.2,0.207c0.403-0.002,0.96-0.343,1.235-0.801l0.004-0.008V2.941
	C51.323,2.889,51.301,2.809,51.209,2.809 M44.766,2.876c-0.397,0.364-0.611,0.45-0.661,0.448L44.03,3.222
	c-0.002-0.483,0.428-1.406,0.868-1.798c0.219-0.196,0.323-0.265,0.479-0.265c0.164,0,0.271,0.102,0.32,0.223
	C45.583,1.791,45.291,2.386,44.766,2.876 M46.198,0.55l-0.112,0.023l-0.01,0.005l-0.004,0.011l-0.174,0.397l-0.121-0.111
	l-0.182-0.044c-0.189-0.001-0.372,0.051-0.649,0.207c-0.292,0.164-0.597,0.449-0.936,0.914c-0.466,0.645-0.623,1.207-0.625,1.382
	c0.001,0.206,0.119,0.422,0.34,0.424c0.338-0.003,1-0.448,1.5-1.029l-0.193,0.524c-0.056,0.163-0.073,0.229-0.073,0.286
	c0,0.066,0.053,0.218,0.236,0.219c0.406-0.002,0.903-0.4,1.205-0.799l0.006-0.009V2.941l-0.129-0.122h-0.012l-0.009,0.008
	c-0.398,0.349-0.604,0.465-0.703,0.461l-0.038-0.04l0.017-0.08c0.224-0.638,0.837-2.191,0.941-2.45l0.006-0.013l-0.006-0.012
	C46.431,0.607,46.313,0.551,46.198,0.55"/>
<path d="M62.539,6.992c-0.356,0-0.618,0.179-0.756,0.383l-0.02-0.327h-0.438l0.004,0.032c0.014,0.191,0.018,0.388,0.018,0.627v1.73
	h0.485v-1.43l0.027-0.188c0.07-0.226,0.276-0.413,0.539-0.413c0.379,0.001,0.506,0.287,0.509,0.657v1.374h0.486V8.016
	C63.393,7.201,62.871,6.993,62.539,6.992 M58.237,9.111c-0.391,0-0.675-0.365-0.676-0.866c0.002-0.435,0.21-0.871,0.686-0.873
	c0.475,0.002,0.667,0.477,0.668,0.866C58.914,8.751,58.62,9.111,58.237,9.111 M58.257,6.992c-0.66,0.001-1.186,0.475-1.187,1.27
	c0.001,0.75,0.502,1.227,1.148,1.229c0.576-0.002,1.19-0.39,1.191-1.268C59.408,7.497,58.942,6.993,58.257,6.992 M54.647,9.437
	h0.485v-2.39h-0.485V9.437z M54.889,6.128c-0.17,0-0.294,0.13-0.294,0.294c0,0.16,0.119,0.291,0.285,0.291
	c0.178,0,0.3-0.124,0.3-0.28V6.422C55.18,6.26,55.065,6.128,54.889,6.128 M52.161,6.477L52.122,6.49l-0.436,0.136v0.421h-0.363
	v0.382h0.363V8.67c0,0.277,0.041,0.491,0.171,0.628c0.106,0.122,0.275,0.193,0.478,0.193h0.002c0.166,0,0.299-0.028,0.387-0.065
	l0.021-0.009L52.72,9.04l-0.037,0.01c-0.059,0.019-0.121,0.027-0.235,0.027c-0.216-0.002-0.282-0.135-0.287-0.42V7.429h0.606V7.047
	h-0.606V6.477z M49.08,7.396c0.226,0,0.381,0.053,0.475,0.108l0.035,0.018l0.114-0.389l-0.023-0.011
	C49.56,7.06,49.335,6.999,49.08,6.999c-0.775,0.002-1.281,0.536-1.283,1.267c0.002,0.726,0.473,1.223,1.192,1.225
	c0.318-0.001,0.566-0.083,0.684-0.143l0.021-0.01l-0.005-0.024L49.608,8.96l-0.035,0.015c-0.119,0.052-0.273,0.112-0.508,0.112
	c-0.445-0.001-0.775-0.314-0.777-0.842C48.291,7.772,48.564,7.399,49.08,7.396 M44.488,8.028l0.305-0.898
	c0.052-0.164,0.097-0.329,0.139-0.49c0.04,0.157,0.083,0.319,0.143,0.495l0.304,0.893H44.488z M44.67,6.131l-1.126,3.306h0.5
	l0.337-1.02h1.106l0.347,1.02h0.513l-1.13-3.306H44.67z"/>
<path d="M68.243,7.359c0,1.504,0.127,1.546,0.793,1.631l0.312,0.042c0.1,0.1,0.085,0.356-0.028,0.412
	c-0.624-0.029-1.262-0.043-1.886-0.043c-0.624,0-1.29,0.014-1.915,0.043c-0.113-0.056-0.127-0.312-0.028-0.412l0.312-0.042
	c0.667-0.085,0.794-0.127,0.794-1.631V2.085c0-1.504-0.127-1.546-0.794-1.631l-0.312-0.042c-0.099-0.1-0.085-0.355,0.028-0.412
	c0.625,0.029,1.263,0.043,1.915,0.043c0.624,0,1.262-0.014,1.886-0.043c0.113,0.057,0.128,0.312,0.028,0.412l-0.312,0.042
	c-0.666,0.085-0.793,0.127-0.793,1.631V7.359z"/>
<path d="M73.262,7.359c0,1.504,0.127,1.546,0.794,1.631l0.312,0.042c0.099,0.1,0.085,0.356-0.029,0.412
	c-0.624-0.029-1.262-0.043-1.886-0.043s-1.29,0.014-1.913,0.043c-0.114-0.056-0.129-0.312-0.029-0.412l0.312-0.042
	c0.667-0.085,0.794-0.127,0.794-1.631V2.085c0-1.504-0.127-1.546-0.794-1.631l-0.312-0.042c-0.1-0.1-0.085-0.355,0.029-0.412
	c0.623,0.029,1.261,0.043,1.913,0.043c0.624,0,1.262-0.014,1.886-0.043c0.114,0.057,0.128,0.312,0.029,0.412l-0.312,0.042
	c-0.667,0.085-0.794,0.127-0.794,1.631V7.359z"/>
</svg>
