<?xml version="1.0" encoding="utf-8"?>
<!-- Generator: Adobe Illustrator 17.0.0, SVG Export Plug-In . SVG Version: 6.00 Build 0)  -->
<!DOCTYPE svg PUBLIC "-//W3C//DTD SVG 1.1//EN" "http://www.w3.org/Graphics/SVG/1.1/DTD/svg11.dtd">
<svg version="1.1" id="Livello_1" xmlns="http://www.w3.org/2000/svg" xmlns:xlink="http://www.w3.org/1999/xlink" x="0px" y="0px"
	 width="71.907px" height="8.504px" viewBox="444.644 276.064 71.907 8.504" enable-background="new 444.644 276.064 71.907 8.504"
	 xml:space="preserve">
<path fill="#A9976D" d="M484.706,277.744c-0.182-0.132-0.384-0.247-0.606-0.346s-0.468-0.18-0.738-0.242
	c-0.271-0.063-0.56-0.094-0.866-0.094c-0.501,0-0.967,0.07-1.4,0.209c-0.431,0.14-0.807,0.354-1.126,0.644s-0.569,0.657-0.751,1.102
	c-0.181,0.444-0.272,0.97-0.272,1.58c0,0.536,0.08,1.021,0.242,1.454c0.162,0.433,0.398,0.798,0.71,1.095
	c0.311,0.298,0.691,0.528,1.139,0.689c0.449,0.162,0.957,0.242,1.522,0.242c0.17,0,0.348-0.007,0.534-0.022
	c0.186-0.014,0.366-0.036,0.539-0.066c0.174-0.029,0.336-0.066,0.486-0.11c0.149-0.044,0.276-0.096,0.382-0.154
	c0.005-0.221,0.01-0.441,0.013-0.662c0.002-0.22,0.004-0.444,0.004-0.672c0-0.257-0.007-0.514-0.021-0.771
	c-0.014-0.258-0.03-0.504-0.048-0.739c0.205,0.037,0.401,0.055,0.59,0.055c0.09,0,0.18-0.004,0.27-0.011l0.258-0.044
	c-0.018,0.169-0.03,0.435-0.039,0.799c-0.008,0.364-0.013,0.843-0.013,1.438c0,0.148,0.003,0.296,0.009,0.447
	c0.005,0.151,0.008,0.299,0.008,0.446c-0.169,0.059-0.382,0.12-0.636,0.182c-0.255,0.063-0.526,0.114-0.813,0.154
	c-0.287,0.04-0.573,0.077-0.86,0.111c-0.287,0.032-0.548,0.049-0.783,0.049c-0.719,0-1.368-0.079-1.946-0.237
	s-1.069-0.402-1.473-0.733s-0.715-0.742-0.933-1.234c-0.219-0.492-0.328-1.062-0.328-1.708c0-0.625,0.113-1.181,0.339-1.67
	s0.545-0.902,0.957-1.24c0.412-0.338,0.91-0.595,1.496-0.771c0.585-0.176,1.233-0.265,1.944-0.265c0.411,0,0.777,0.021,1.096,0.061
	c0.318,0.041,0.601,0.095,0.847,0.162s0.463,0.138,0.649,0.211c0.185,0.074,0.351,0.144,0.496,0.21
	c-0.065,0.103-0.123,0.235-0.176,0.396c-0.052,0.161-0.086,0.312-0.103,0.451h-0.145
	C485.039,278.008,484.887,277.876,484.706,277.744"/>
<path fill="#A9976D" d="M492.41,279.919c-0.117-0.036-0.236-0.055-0.357-0.055c-0.194,0-0.367,0.04-0.52,0.121
	c-0.154,0.081-0.283,0.189-0.388,0.324c-0.105,0.136-0.186,0.296-0.242,0.483c-0.056,0.186-0.085,0.386-0.085,0.598v1.207
	c0,0.49,0.002,0.865,0.007,1.124c0.004,0.26,0.019,0.47,0.045,0.631c-0.162-0.011-0.324-0.017-0.487-0.017
	c-0.178,0-0.348,0.006-0.51,0.017c0.025-0.249,0.04-0.588,0.045-1.016c0.004-0.429,0.006-0.954,0.006-1.577v-0.352
	c0-0.285-0.002-0.615-0.006-0.988c-0.005-0.374-0.02-0.803-0.045-1.286l0.255,0.038l0.255,0.017l0.231-0.017l0.256-0.038
	c-0.037,0.263-0.057,0.472-0.062,0.626c-0.005,0.154-0.007,0.3-0.007,0.439l0.03,0.011c0.475-0.791,1.008-1.187,1.597-1.187
	l0.188,0.011l0.2,0.057c-0.041,0.089-0.065,0.223-0.073,0.404s-0.012,0.345-0.012,0.492l-0.085,0.055
	C492.606,279.997,492.527,279.956,492.41,279.919"/>
<path fill="#A9976D" d="M498.587,281.731c-0.18,0.03-0.362,0.06-0.546,0.093c-0.185,0.033-0.367,0.076-0.547,0.127
	c-0.18,0.051-0.34,0.121-0.48,0.209c-0.141,0.088-0.253,0.198-0.337,0.331c-0.084,0.132-0.126,0.3-0.126,0.506
	c0,0.345,0.108,0.605,0.324,0.782c0.216,0.176,0.457,0.264,0.721,0.264c0.304,0,0.583-0.077,0.835-0.231
	c0.252-0.155,0.446-0.334,0.583-0.54l0.048-1.651C498.925,281.665,498.767,281.701,498.587,281.731 M497.076,279.154
	c0.307-0.088,0.622-0.132,0.945-0.132c0.29,0,0.556,0.038,0.799,0.115c0.242,0.077,0.449,0.187,0.621,0.33
	c0.17,0.143,0.305,0.316,0.403,0.517c0.097,0.202,0.146,0.424,0.146,0.666c0,0.417-0.009,0.833-0.026,1.248
	c-0.017,0.414-0.026,0.852-0.026,1.314c0,0.088,0.002,0.181,0.007,0.28c0.004,0.099,0.022,0.187,0.054,0.264l0.139,0.193
	c0.061,0.051,0.152,0.076,0.273,0.076l0.127-0.005l0.127-0.038v0.246c-0.089,0.038-0.2,0.068-0.333,0.09
	c-0.133,0.023-0.282,0.034-0.445,0.034c-0.261,0-0.46-0.06-0.598-0.181c-0.139-0.122-0.22-0.278-0.245-0.469
	c-0.289,0.264-0.573,0.459-0.854,0.583c-0.281,0.125-0.626,0.188-1.035,0.188c-0.201,0-0.398-0.026-0.59-0.077
	c-0.193-0.052-0.364-0.136-0.512-0.254c-0.148-0.117-0.269-0.258-0.361-0.423c-0.092-0.165-0.138-0.354-0.138-0.568
	c0-0.439,0.15-0.781,0.452-1.023c0.301-0.242,0.717-0.404,1.248-0.484c0.433-0.066,0.773-0.123,1.018-0.171s0.426-0.097,0.542-0.149
	c0.117-0.051,0.187-0.112,0.211-0.181c0.024-0.07,0.037-0.16,0.037-0.27c0-0.183-0.025-0.36-0.073-0.528
	c-0.049-0.169-0.125-0.316-0.23-0.441c-0.105-0.124-0.242-0.225-0.412-0.302c-0.169-0.077-0.375-0.116-0.617-0.116
	c-0.323,0-0.624,0.066-0.902,0.198c-0.279,0.132-0.486,0.315-0.623,0.551h-0.133v-0.573
	C496.435,279.412,496.769,279.243,497.076,279.154"/>
<path fill="#A9976D" d="M507.318,280.013c-0.234-0.282-0.557-0.424-0.969-0.424c-0.566,0-0.98,0.158-1.243,0.473
	c-0.263,0.316-0.394,0.76-0.394,1.331v0.935c0,0.33,0.006,0.677,0.018,1.04s0.039,0.691,0.079,0.984
	c-0.185-0.011-0.367-0.017-0.544-0.017s-0.358,0.006-0.544,0.017c0.04-0.293,0.067-0.621,0.079-0.984
	c0.012-0.362,0.018-0.708,0.018-1.038v-1.143c0-0.33-0.006-0.676-0.018-1.039s-0.039-0.702-0.079-1.017
	c0.226,0.037,0.407,0.055,0.543,0.055l0.211-0.016c0.077-0.012,0.167-0.024,0.272-0.039c-0.023,0.293-0.035,0.587-0.035,0.88h0.025
	c0.227-0.315,0.499-0.558,0.815-0.731c0.317-0.172,0.694-0.258,1.133-0.258c0.227,0,0.456,0.029,0.687,0.088
	c0.232,0.058,0.441,0.159,0.627,0.302c0.187,0.143,0.34,0.337,0.457,0.582c0.118,0.246,0.177,0.559,0.177,0.94
	c0,0.315-0.009,0.64-0.026,0.973c-0.017,0.333-0.026,0.687-0.026,1.061v0.714c0,0.117,0.002,0.232,0.004,0.346
	c0.003,0.114,0.007,0.222,0.013,0.324c-0.163-0.011-0.334-0.017-0.513-0.017c-0.171,0-0.338,0.006-0.501,0.017
	c0.016-0.381,0.034-0.773,0.055-1.177c0.02-0.403,0.031-0.817,0.031-1.243v-0.671C507.67,280.711,507.552,280.295,507.318,280.013"
	/>
<path fill="#A9976D" d="M512.249,282.964c0.101,0.286,0.23,0.517,0.387,0.689c0.158,0.173,0.337,0.293,0.539,0.359
	c0.202,0.067,0.4,0.099,0.593,0.099c0.315,0,0.585-0.071,0.811-0.214c0.226-0.144,0.414-0.332,0.563-0.564
	c0.15-0.231,0.258-0.495,0.327-0.789s0.103-0.589,0.103-0.883c0-0.706-0.149-1.246-0.448-1.617
	c-0.299-0.372-0.739-0.558-1.319-0.558c-0.291,0-0.543,0.061-0.757,0.182c-0.214,0.122-0.391,0.291-0.533,0.508
	c-0.141,0.217-0.246,0.471-0.314,0.762c-0.069,0.291-0.103,0.602-0.103,0.932C512.098,282.312,512.148,282.677,512.249,282.964
	 M515.53,283.317c-0.065,0.117-0.152,0.244-0.26,0.38c-0.109,0.135-0.246,0.262-0.411,0.38c-0.166,0.117-0.361,0.212-0.587,0.286
	c-0.226,0.073-0.487,0.11-0.786,0.11c-0.306,0-0.606-0.048-0.9-0.143c-0.295-0.096-0.557-0.252-0.787-0.469
	c-0.229-0.216-0.415-0.495-0.556-0.836c-0.141-0.342-0.211-0.751-0.211-1.228c0-0.47,0.076-0.877,0.229-1.223
	c0.154-0.344,0.353-0.633,0.599-0.864c0.245-0.231,0.523-0.403,0.834-0.517c0.31-0.114,0.622-0.171,0.937-0.171
	c0.894,0,1.515,0.368,1.861,1.103h0.027v-1.086c0-0.278-0.002-0.558-0.006-0.84c-0.004-0.281-0.009-0.55-0.013-0.806
	c-0.004-0.257-0.008-0.498-0.013-0.725c-0.004-0.226-0.01-0.428-0.019-0.604c0.096,0.014,0.188,0.026,0.277,0.037l0.265,0.015
	l0.258-0.015c0.085-0.011,0.179-0.023,0.283-0.037c-0.023,0.235-0.042,0.574-0.057,1.018s-0.029,0.934-0.04,1.47
	c-0.012,0.535-0.022,1.086-0.029,1.65c-0.007,0.565-0.011,1.083-0.011,1.552c0,0.507,0.004,0.962,0.011,1.365
	c0.007,0.404,0.015,0.818,0.023,1.243c-0.161-0.014-0.318-0.022-0.47-0.022c-0.145,0-0.298,0.008-0.459,0.022l0.035-1.045H515.53z"
	/>
<path fill="#E6E6E6" d="M446.611,280.323c-0.161,0-0.306-0.004-0.438-0.011c-0.113-0.007-0.217-0.018-0.314-0.035v-0.579
	c0-0.396,0.008-0.791,0.024-1.186c0.015-0.381,0.031-0.764,0.046-1.151c0.118-0.012,0.258-0.023,0.42-0.032
	c0.183-0.012,0.415-0.017,0.697-0.017c0.205,0,0.415,0.019,0.629,0.059c0.211,0.04,0.406,0.113,0.585,0.219
	c0.178,0.106,0.321,0.247,0.434,0.427c0.109,0.176,0.167,0.401,0.167,0.679c0,0.322-0.073,0.582-0.214,0.788
	c-0.145,0.21-0.325,0.375-0.543,0.5c-0.22,0.125-0.461,0.212-0.725,0.263C447.112,280.298,446.857,280.323,446.611,280.323
	 M450.857,284.348c-0.111-0.101-0.26-0.25-0.445-0.447s-0.382-0.415-0.592-0.653c-0.21-0.237-0.427-0.486-0.653-0.746
	s-0.444-0.509-0.654-0.748c-0.21-0.238-0.399-0.456-0.568-0.653c-0.132-0.154-0.243-0.281-0.331-0.382
	c0.21-0.034,0.439-0.09,0.686-0.169c0.291-0.093,0.565-0.224,0.819-0.391c0.256-0.169,0.474-0.384,0.652-0.642
	c0.18-0.263,0.27-0.578,0.27-0.939c0-0.337-0.068-0.623-0.208-0.853c-0.139-0.229-0.327-0.413-0.565-0.553
	c-0.237-0.139-0.511-0.239-0.823-0.298c-0.311-0.06-0.637-0.089-0.979-0.089c-0.236,0-0.468,0.008-0.695,0.026
	c-0.225,0.017-0.453,0.025-0.686,0.025c-0.234,0-0.463-0.005-0.688-0.015s-0.455-0.022-0.689-0.036l-0.064-0.004l0.003,0.064
	c0.026,0.484,0.05,0.957,0.071,1.422c0.022,0.465,0.033,0.938,0.033,1.421v1.89c0,0.483-0.011,0.958-0.033,1.426
	c-0.021,0.468-0.045,0.93-0.071,1.383l-0.003,0.065l0.064-0.004c0.185-0.012,0.381-0.017,0.59-0.017c0.208,0,0.405,0.005,0.59,0.017
	l0.064,0.004l-0.003-0.064c-0.024-0.455-0.044-0.917-0.063-1.386c-0.019-0.469-0.028-0.945-0.028-1.429v-0.746h0.377
	c0.252,0.238,0.529,0.527,0.832,0.867c0.309,0.348,0.613,0.698,0.911,1.05c0.298,0.351,0.571,0.682,0.816,0.989
	c0.247,0.308,0.43,0.539,0.551,0.693l0.02,0.024l0.031-0.003c0.111-0.011,0.226-0.016,0.345-0.016h0.714
	c0.119,0,0.239,0.005,0.358,0.016l0.172,0.017L450.857,284.348z"/>
<path fill="#E6E6E6" d="M463.093,282.54c-0.08-0.62-0.161-1.247-0.242-1.882c-0.08-0.634-0.159-1.28-0.236-1.936
	c-0.076-0.657-0.159-1.338-0.248-2.042l-0.006-0.05h-0.24l-0.017,0.028c-0.202,0.337-0.42,0.7-0.654,1.089
	c-0.234,0.389-0.47,0.785-0.708,1.189s-0.472,0.802-0.702,1.194c-0.23,0.393-0.446,0.758-0.648,1.095s-0.379,0.637-0.532,0.897
	c-0.125,0.212-0.226,0.384-0.303,0.516c-0.603-1.005-1.182-1.986-1.735-2.942c-0.569-0.983-1.131-1.994-1.688-3.036l-0.016-0.03
	h-0.292l-0.005,0.051c-0.065,0.586-0.142,1.204-0.23,1.853c-0.089,0.649-0.186,1.307-0.29,1.974
	c-0.105,0.667-0.214,1.331-0.327,1.991s-0.222,1.288-0.327,1.882l-0.013,0.073l0.075-0.007c0.127-0.01,0.266-0.017,0.418-0.017
	s0.292,0.007,0.419,0.017l0.062,0.006v-0.063c0-0.29,0.02-0.665,0.061-1.122c0.04-0.458,0.088-0.946,0.145-1.463
	c0.056-0.516,0.118-1.041,0.187-1.572c0.062-0.479,0.119-0.926,0.17-1.341c0.511,0.928,1.02,1.838,1.527,2.729
	c0.529,0.928,1.035,1.854,1.519,2.779l0.015,0.03h0.18l0.015-0.032c0.485-0.997,0.994-1.952,1.53-2.865
	c0.516-0.878,1.041-1.762,1.575-2.651c0.122,0.908,0.225,1.8,0.31,2.675c0.088,0.917,0.177,1.863,0.266,2.839l0.006,0.058
	l0.058-0.007c0.094-0.011,0.187-0.016,0.278-0.017h0.569c0.09,0.001,0.183,0.006,0.277,0.017l0.076,0.009l-0.012-0.075
	C463.263,283.773,463.174,283.159,463.093,282.54"/>
<path fill="#E6E6E6" d="M471.048,281.371c-0.14-0.219-0.315-0.395-0.524-0.528c-0.207-0.132-0.431-0.226-0.671-0.283
	c-0.187-0.043-0.367-0.075-0.54-0.093c0.144-0.044,0.291-0.104,0.443-0.179c0.199-0.098,0.38-0.224,0.541-0.378
	c0.163-0.156,0.298-0.341,0.405-0.555c0.11-0.218,0.164-0.464,0.164-0.736c0-0.294-0.063-0.551-0.19-0.766
	c-0.126-0.213-0.299-0.389-0.515-0.526c-0.217-0.136-0.469-0.237-0.756-0.304c-0.288-0.067-0.59-0.101-0.909-0.101
	c-0.45,0-0.825,0.076-1.123,0.231c-0.289,0.151-0.517,0.302-0.683,0.453l-0.032,0.029l0.317,0.675l0.131-0.034l0.028-0.007
	l0.011-0.027c0.084-0.216,0.239-0.411,0.471-0.586c0.228-0.172,0.502-0.258,0.831-0.258c0.155,0,0.306,0.025,0.454,0.074
	c0.146,0.048,0.276,0.125,0.391,0.229c0.114,0.104,0.209,0.238,0.283,0.403c0.073,0.163,0.11,0.358,0.11,0.585
	c0,0.179-0.018,0.366-0.054,0.56c-0.035,0.191-0.101,0.365-0.198,0.523c-0.096,0.156-0.228,0.285-0.398,0.386
	c-0.166,0.1-0.385,0.152-0.66,0.152c-0.199,0-0.377-0.017-0.533-0.05l-0.086-0.019l0.018,0.086l0.017,0.114l0.006,0.115
	l-0.006,0.115l-0.017,0.111l-0.018,0.085l0.085-0.017c0.072-0.014,0.157-0.029,0.257-0.043c0.099-0.014,0.191-0.022,0.277-0.022
	c0.245,0,0.47,0.029,0.674,0.086c0.203,0.056,0.375,0.145,0.517,0.267c0.142,0.121,0.255,0.28,0.338,0.482
	c0.083,0.199,0.125,0.445,0.125,0.738c0,0.263-0.043,0.504-0.129,0.723s-0.211,0.404-0.374,0.558
	c-0.163,0.155-0.36,0.275-0.591,0.36c-0.231,0.085-0.497,0.128-0.798,0.128c-0.189,0-0.363-0.023-0.522-0.069
	c-0.163-0.047-0.313-0.106-0.45-0.178c-0.138-0.071-0.258-0.15-0.359-0.235c-0.104-0.087-0.191-0.167-0.262-0.238l-0.032-0.033
	l-0.111,0.068l-0.025,0.015l-0.003,0.03c-0.008,0.107-0.026,0.227-0.053,0.361c-0.028,0.133-0.058,0.227-0.085,0.276l-0.03,0.054
	l0.057,0.025c0.221,0.1,0.479,0.184,0.772,0.257c0.297,0.072,0.656,0.108,1.079,0.108c0.465,0,0.889-0.055,1.275-0.167
	c0.385-0.111,0.717-0.272,0.994-0.481c0.277-0.21,0.494-0.46,0.648-0.75c0.154-0.29,0.231-0.61,0.231-0.955
	C471.261,281.877,471.192,281.595,471.048,281.371"/>
</svg>
