<?xml version="1.0" encoding="utf-8"?>
<!-- Generator: Adobe Illustrator 17.0.0, SVG Export Plug-In . SVG Version: 6.00 Build 0)  -->
<!DOCTYPE svg PUBLIC "-//W3C//DTD SVG 1.1//EN" "http://www.w3.org/Graphics/SVG/1.1/DTD/svg11.dtd">
<svg version="1.1" id="Livello_1" xmlns="http://www.w3.org/2000/svg" xmlns:xlink="http://www.w3.org/1999/xlink" x="0px" y="0px"
	 width="198.942px" height="56.765px" viewBox="0 0 198.942 56.765" enable-background="new 0 0 198.942 56.765"
	 xml:space="preserve">
<path d="M30.826,32.131c0,0-0.279-1.201-2.158-2.555c0,0-1.827-1.377-4.42-1.355c0,0-2.926,0.072-4.912,1.609
	c0,0-1.102,0.682-2.221,2.234c0,0-1.369,1.831-2.055,4.27c0,0-0.759,2.547-0.884,3.18c0,0-1.104,4.209-1.284,4.697
	c0,0-0.535,2.756-2.945,4.369c0,0-3.613,2.09-6.893-0.141c0,0-1.986-1.136-2.132-4.21c0,0-0.041-2.702,2.349-4.266
	c0,0,1.455-1.145,3.348-1.117c0,0,1.74-0.074,2.885,0.82c0,0,0.623,0.088,0.597-0.496c0,0-0.67-1.174-3.47-1.174
	c0,0-2.151-0.107-4.174,1.428c0,0-2.457,1.713-2.457,4.805c0,0-0.041,3.414,2.656,5.068c0,0,2.588,2.117,6.83,0.549
	c0,0,2.348-0.69,4.328-2.961c0,0,1.697-1.899,2.385-5.238c0,0,1.754-7.409,2.639-9.071c0,0,0.472-1.314,1.468-2.174
	c0,0,1.555-1.283,3.969-1.349c0,0,2.016-0.073,3.809,1.162c0,0,1.457,0.933,2.009,2.162c0,0,0.229,0.178,0.495,0.125
	C30.588,32.502,30.879,32.397,30.826,32.131"/>
<path d="M31.06,32.92l-7.425-0.02c0,0-0.18,0.463,0.271,0.498l1.447,0.118c0,0,0.506,0.103,0.287,0.515l-6.875,11.041
	c0,0-0.709,0.971-1.726,1.032l-1.293,0.097c0,0-0.26,0.221-0.26,0.53h6.998c0,0,0.336-0.428-0.043-0.508l-0.637-0.119
	c0,0-0.839-0.055-0.541-0.735l6.987-11.06c0,0,0.424-0.69,1.685-0.805l0.944-0.096C30.879,33.408,31.166,33.119,31.06,32.92"/>
<path d="M48.51,32.906l-6.959,0.014c0,0-0.2,0.504,0.251,0.488l1.262,0.137c0,0,0.434,0.01,0.289,0.533l-7.125,11.106
	c0,0-0.461,0.859-1.695,0.92l-1.236,0.097c0,0-0.405,0.08-0.375,0.526h7.504c0,0,0.335-0.487-0.026-0.504l-0.863-0.141
	c0,0-0.967-0.057-0.719-0.691l7.174-11.114c0,0,0.394-0.613,1.658-0.75l0.768-0.103C48.418,33.424,48.853,33.053,48.51,32.906"/>
<path d="M71.715,33.625l-7.903,12.031c-0.179,0.401,0.432,0.287,0.432,0.287l3.549-0.039c3.437-0.183,4.425-1.117,4.425-1.117
	c1.508-1.076,2.6-2.791,2.6-2.791c0.537-0.289,0.572,0.193,0.572,0.193l-2.789,4.27c-0.144,0.193-0.722,0.17-0.722,0.17
	l-13.811,0.014c-0.361-0.215,0.053-0.5,0.053-0.5l1.293-0.11c1.324-0.136,2.076-1.256,2.076-1.256l6.885-10.662
	c0.199-0.478-0.24-0.588-0.24-0.588l-1.749-0.123c-0.515-0.158-0.031-0.49-0.031-0.49h12.932c0.344,0.143,0.24,0.385,0.24,0.385
	l-2.5,3.951c0,0-0.476,0.414-0.574-0.168c0,0,0.515-1.019,0.773-1.857c0,0,0.606-1.592-0.744-1.664l-4.508-0.038
	C71.974,33.523,71.795,33.523,71.715,33.625"/>
<path d="M137.095,32.916l-8.102-0.01c0,0-0.318,0.414,0.026,0.504l1.553,0.143c0,0,0.843-0.053,0.376,0.853l-6.681,10.082
	c0,0-1,1.559-2.591,1.616l-1.403,0.134c0,0-0.246,0.045-0.217,0.491l8.818,0.005c0,0,0.362-0.039,0.289-0.496l-1.631-0.134
	c0,0-1.37,0.002-0.659-1.178l6.896-10.555c0,0,0.637-0.877,1.625-0.853l1.623-0.086C137.017,33.432,137.355,33.121,137.095,32.916"
	/>
<path d="M90.761,32.9l-8.132,0.01c0,0-0.416,0.426,0,0.514l1.22,0.121c0,0,0.647,0.014,0.387,0.65l-7.152,10.996
	c0,0-0.574,0.811-1.743,0.95l-1.4,0.101c0,0-0.348,0.313-0.092,0.489h8.582c0,0,0.444-0.471,0.157-0.508l-1.674-0.119
	c0,0-1.272-0.196-0.823-1.131l6.704-10.418c0,0,0.603-0.727,1.129-0.86c0,0,0.578-0.152,1.156-0.207c0,0,0.972-0.049,1.568,0.133
	c0,0,0.815,0.147,0.862,0.897c0,0,0.236,1.3-1.209,2.765c0,0-0.967,1.401-3.045,1.797c0,0-0.971,0.363-3.2,0.192
	c0,0-0.281,0.003-0.289-0.274l-0.703,1.131c0,0,0.199-0.162,0.469-0.145c0,0,0.906-0.13,1.699-0.009c0,0,0.582,0.039,0.922,0.271
	c0,0,0.947,0.578,2.248,4.027c0,0,1.445,4.102,1.555,4.301c0,0,0.639,1.567,1.724,2.873c0,0,2.723,3.424,7.709,4.834
	c0,0,2.375,0.768,5.59,0.369c0,0,2.584-0.234,4.373-1.609c0,0,0.119-0.715-0.517-0.609c0,0-1.371,1.019-3.909,1.423
	c0,0-2.566,0.389-5.24-0.396c0,0-1.998-0.371-3.533-1.781c0,0-1.635-1.201-2.846-3.496c0,0-1.472-3.055-2.013-4.571
	c0,0-0.924-2.205-1.41-3.072c0,0-0.411-1.457-2.829-2.564c0,0-0.099-0.08-0.017-0.18c0,0,0.127-0.072,0.433-0.09
	c0,0,1.637-0.057,3.289-0.723c0,0,2.665-0.904,3.045-2.783c0,0,0.569-1.699-1.166-2.855C92.64,33.344,91.881,32.99,90.761,32.9"/>
<path d="M198.933,32.777l-7.227-0.005c0,0-0.435,0.382,0.073,0.55l1.447,0.086c0,0,0.537-0.002,0.203,0.555l-7.022,10.893
	c0,0-0.765,1.226-1.695,1.248l-1.582,0.121c0,0-0.387,0.244-0.098,0.509h7.475c0,0,0.27-0.414-0.103-0.5l-1.141-0.152
	c0,0-0.594-0.029-0.387-0.572l7.164-11.203c0,0,0.491-0.821,1.453-0.895l1.104-0.107C198.597,33.305,199.007,33.115,198.933,32.777"
	/>
<path d="M39.535,32.9h-6.813c0,0-0.427,0.524,0.098,0.514l1.299,0.141c0,0,0.51,0.045,0.291,0.521l-6.895,11
	c0,0-0.562,0.953-1.55,1.028l-1.282,0.107c0,0-0.381,0.32-0.109,0.52l6.959,0.001c0,0,0.287-0.492-0.074-0.509l-0.629-0.119
	c0,0-1.119-0.077-0.584-0.961l6.978-11.088c0,0,0.276-0.51,1.166-0.551l0.957-0.092C39.347,33.412,39.679,33.119,39.535,32.9"/>
<path d="M25.511,38.385c0,0-0.109,0.338,0.157,0.387l5.582-0.004c0,0,0.349-0.049,0.519-0.264l-0.785,1.268
	c0,0,0.014-0.354-0.205-0.354h-5.51c0,0-0.423,0.057-0.521,0.225L25.511,38.385z"/>
<path d="M45.496,48.074c0.113,0.319,0.574,0.637,0.574,0.637c1.066,0.824,2.807,0.504,2.807,0.504
	c1.435-0.147,2.966-1.047,2.966-1.047c1.686-1.012,2.458-2.127,2.458-2.127c0.216-0.93-0.77-0.508-0.77-0.508
	c-1.48,1.073-3.209,1.174-3.209,1.174c-2.338,0.385-4.062-1.014-4.062-1.014c-1.711-1.468-1.397-4.009-1.397-4.009
	c0.217-2.387,1.639-4.049,1.639-4.049c1.617-2.303,4.285-3.899,4.285-3.899c1.812-1.101,3.871-1.232,3.871-1.232
	c1.533-0.141,2.193,0.096,2.193,0.096c1.33,0.201,2.137,1.125,2.137,1.125c0.342,0.345,0.715,0.347,0.715,0.347
	c0.531,0.106,0.713-0.146,0.713-0.146c0.459-0.219,1.242-1.133,1.242-1.133c0.408-0.121,0.445,0.217,0.445,0.217l-4,6.215
	c-0.439,0.07-0.468-0.307-0.468-0.307c0.996-1.754,0.923-3.619,0.923-3.619c-0.187-1.799-1.81-2.031-1.81-2.031
	c-2.172-0.354-3.852,0.754-3.852,0.754c-4.599,3.06-5.805,7.615-5.805,7.615c-0.628,1.801,0.317,3.092,0.317,3.092
	c1.115,1.55,2.891,1.195,2.891,1.195c2.757-0.496,3.939-2.244,3.939-2.244c1.66-2.141,1.498-2.975,1.498-2.975
	c-0.146-0.75-0.869-0.564-0.869-0.564l-2.592-0.09c-0.344-0.049-0.182-0.61-0.182-0.61l10.758-0.002
	c0.385,0.168-0.097,0.608-0.097,0.608l-1.965,0.115c-1.969,0.137-3.737,3.567-3.737,3.567c-2.144,4.212-4.984,5.328-4.984,5.328
	c-1.613,0.896-3.168,1.007-3.168,1.007c-2.264,0.292-3.373-0.748-3.373-0.748c-0.408-0.265-0.625-0.843-0.625-0.843
	s-0.068-0.295,0.211-0.412C45.113,48.061,45.435,47.9,45.496,48.074"/>
<path d="M68.383,38.506c0,0-0.016,0.217,0.273,0.24c0,0,1.338,0.121,2.133-0.023c0,0,1.771-0.004,3.754-2.485
	c0,0,0.406-0.228,0.558,0.119l-4.193,6.409c0,0-0.484,0.215-0.535-0.168c0,0,0.566-0.981,0.783-1.848c0,0,0.412-0.916-0.248-1.221
	c0,0-0.176-0.129-0.625-0.144h-1.942c0,0-0.521,0.049-0.738,0.193L68.383,38.506z"/>
<path d="M96.181,32.9c0,0-0.216,0.444,0.18,0.516l1.602,0.145c0,0,0.718-0.022,0.478,0.515c-0.021,0.051-4.431,7.112-4.431,7.112
	s-0.977,1.373-1.032,2.597c0,0-0.09,1.483,1.283,2.404c0,0,1.415,0.958,3.678,0.823c0,0,2.809,0.207,4.688-2.756l6.265-9.44
	c0,0,0.711-1.132,1.885-1.293l1.703-0.115c0,0,0.43-0.347-0.109-0.498l-6.145-0.002c0,0-0.136,0.326,0.225,0.506l1.088,0.127
	c0,0,0.888,0.195,0.326,1.248l-6.223,9.395c0,0-1.424,1.939-3.556,2.017c0,0-1.41,0.104-2.289-0.744c0,0-1.067-1.146,0.289-3.24
	l5.216-7.975c0,0,0.391-0.658,1.563-0.732l1.412-0.102c0,0,0.307-0.136,0.199-0.498L96.181,32.9z"/>
<path d="M130.876,38.525c0,0-0.084,0.315,0.205,0.315c0,0,0.637,0.06,1.383-0.24c0,0,1.125-0.459,2.32-1.327
	c0,0,1.036-0.765,4.133-3.035c0,0,1.905-1.357,3.569-1.687c0,0,1.253-0.385,2.722,0.049c0,0,0.43,0.119,0.295,0.513
	c0,0-0.213,0.383-0.607,0.215c0,0-1.012-0.301-2.627,0.111c0,0-1.135,0.083-3.25,1.624c0,0-2.41,1.802-3.422,2.554
	c0,0-1.318,1.147-3.137,1.606c0,0-0.178,0.119,0.065,0.193c0,0,0.795,0.315,1.203,0.941c0,0,0.642,0.53,1.244,2.553
	c0,0,0.969,2.901,2.273,4.793c0,0,0.969,1.373,2.504,1.385c0,0,2.364,0.307,4.887-1.732c0,0,0.709-0.192,0.453,0.515
	c0,0-1.976,1.879-4.988,1.975c0,0-1.637,0.238-3.246-0.698c0,0-1.59-0.843-2.506-2.505c0,0-0.799-1.313-1.317-2.891
	c0,0-0.677-2.324-1.269-3.395c0,0-0.143-0.681-0.899-0.941c0,0-0.312-0.074-0.697,0.24L130.876,38.525z"/>
<path d="M140.343,46.813c0,0-0.436-0.29-0.02-0.506l2.053-0.123c0,0,1.031,0.043,1.967-1.651l6.324-10.674
	c0,0-1.293,0.903-5.158,4.426c0,0-4.211,4.137-5.348,5.401c0,0-2.295,2.548-5.312,5.222c0,0-2.256,2.293-6.975,4.172
	c0,0-3.45,1.684-8.003,1.555c0,0-3.688,0.092-6.815-1.824c0,0-2.656-1.446-3.992-4.338c0,0,0.256-0.711,0.83-0.274
	c0,0,0.25,0.424,0.416,0.69c0,0,1.139,1.92,3.11,3.119c0,0,2.796,1.832,6.73,1.762c0,0,3.571,0.078,7.49-1.565
	c0,0,3.07-1.316,5.258-3.07c0,0,0.89-0.627,1.752-1.619c0,0,5.511-6.52,7.373-8.453c0,0,3.002-3.239,5.238-4.807
	c0,0,3.541-2.631,7.951-4.318c0,0,2.856-1.084,5.096-1.336c0,0,2.09-0.323,3.633,0.341c0,0,0.414,0.162,0.379,0.434
	c0,0,0.011,0.291-0.288,0.252c0,0-0.24,0.047-0.478-0.137c0,0-0.719-0.488-3.084-0.205c0,0-3.012,0.268-6.272,2.352l-7.363,13.408
	c0,0-0.633,0.996,0.299,1.131l1.266,0.136c0,0,0.291,0.37-0.09,0.499H140.343z"/>
<path d="M137.757,40.49c0,0-0.324,0.407,0.072,0.606h8.348c0,0,0.316-0.055,0.189,0.306l0.688-1.238c0,0-0.162,0.289-0.543,0.309
	L137.757,40.49z"/>
<path d="M186.552,31.457l-8.072,13.654c0,0-0.522,0.932,0.832,0.993l1.554,0.119c0,0,0.331,0.345-0.103,0.508h-8.529
	c0,0-0.307-0.292,0.005-0.508l1.754-0.119c0,0,1.102,0,2.141-1.719l6.561-10.508c0,0-0.018-0.344-5.383,4.426
	c0,0-3.289,3-4.899,4.66c0,0-2.384,2.566-5.402,5.24c0,0-2.195,2.016-6.342,3.94c0,0-4.308,2.271-8.963,2.041
	c0,0-4.349,0.013-7.408-1.897c0,0-1.584-0.879-2.51-2.06c0,0-0.05-0.514,0.432-0.397c0,0,0.859,0.869,2.123,1.576
	c0,0,1.135,0.76,2.828,1.242c0,0,2.367,0.768,5.276,0.676c0,0,3.017,0.002,6.017-1.254c0,0,2.041-0.785,5.295-3.414
	c0,0,3.578-3.236,4.301-4.174c0,0,3.297-3.576,5.467-5.474c0,0,3.982-3.631,7.505-5.547c0,0,2.006-1.197,4.934-2.15
	C185.966,31.311,186.566,31.148,186.552,31.457"/>
<path d="M167.861,40.57c0,0-0.563,0.407,0.017,0.625h10.082c0,0,0.307-0.037,0.139,0.362l0.824-1.311c0,0-0.275,0.344-0.68,0.307
	L167.861,40.57z"/>
<path d="M183.21,30.389c0,0,2.086-0.09,3.912,0.47c0,0,1.75,0.594,3.168,1.59c0,0,0.399,0.174,0.516,0.033
	c0,0,0.308-0.197,0.183-0.339c0,0-0.742-0.995-3.615-1.916c0,0-1.535-0.561-3.595-0.596c0,0-2.78-0.277-6.297,0.922
	c0,0-2.241,0.703-5.313,3c0,0-2.879,2.056-8.004,8.437c0,0-0.179,0.198-0.199-0.054l1.934-9.178c0,0-0.155-0.547-0.696-0.203
	c0,0-0.308,0.363-0.902,1.195c0,0-3.027,4.066-7.309,8.348c0,0-0.164,0.144-0.164-0.071l1.612-7.455c0,0,0.132-1.308,1.093-1.453
	L160.669,33c0,0,0.524-0.352-0.017-0.516l-6.575,0.012c0,0-0.482,0.215-0.023,0.529l1.344,0.106c0,0,0.802,0.098,0.609,0.99
	l-2.412,11.125c0,0-1.994,1.985-4.211,3.672c0,0-2.182,1.76-3.865,1.814c0,0-1.887,0.457-3.207-0.902c0,0-0.629-0.197-0.524,0.397
	c0,0,1.119,1.3,3.215,1.318c0,0,1.59,0.061,3.496-1.053c0,0,2.567-1.469,5.701-4.656c0,0,3.424-2.781,8.411-8.725
	c0,0,0.109-0.125,0.109,0.036l-2.014,9.322c0,0,0.073,0.467,0.541,0.199c0,0,4.735-5.799,7.391-8.4c0,0,2.916-3.016,6.613-5.258
	c0,0,2.352-1.446,4.617-2.123C179.868,30.887,181.866,30.363,183.21,30.389"/>
<path d="M106.804,8.571c0,0,0.086-0.194-0.048-0.299c0,0-0.272-0.287-1.252-0.227c0,0-0.541,0.016-1.143,0.346
	c0,0-0.807,0.35-1.988,1.402c0,0-0.949,0.782-1.356,1.235c0,0-0.558,0.635-1.185,1.033c0,0-0.629,0.522-1.219,0.506
	c0,0-0.432,0.068-0.236-0.41l-0.467,0.918c0,0,0.236-0.278,0.512-0.17c0,0,0.08,0.006,0.396,0.592c0,0,0.336,0.664,0.803,2.275
	c0,0,0.422,1.551,1.236,2.861c0,0,0.643,1.055,2.072,1.34c0,0,1.329,0.24,2.354-0.332c0,0,0.785-0.351,1.418-1.285
	c0,0,0.07-0.123-0.07-0.244c0,0-0.235-0.092-0.299,0.029c0,0-0.453,0.606-1.137,1.018c0,0-0.285,0.199-1.031,0.338
	c0,0-0.67,0.129-1.156-0.12c0,0-0.5-0.171-0.954-1.06c0,0-0.435-0.815-0.923-2.379c0,0-0.506-1.672-0.764-2.08
	c0,0-0.354-0.883-1.047-0.992c0,0-0.053-0.053,0.023-0.098c0,0,0.729-0.082,1.592-0.963c0,0,0.709-0.625,1.254-1.199
	c0,0,1.049-0.924,1.772-1.373c0,0,0.689-0.426,1.107-0.541c0,0,0.746-0.217,1.535,0.105C106.603,8.797,106.736,8.811,106.804,8.571
	 M97.01,8.622c-0.016,0.195,0.119,0.197,0.119,0.197l0.81,0.086c0.686,0.113,0.256,0.783,0.256,0.783l-3.705,6.777
	c-0.684,1.143-1.834,1.149-1.834,1.149l-1.185,0.094l-0.184,0.332l5.978-0.01c0.137-0.016,0.184-0.151,0.184-0.151
	c0-0.179-0.168-0.22-0.168-0.22l-0.879-0.084c-0.707-0.092-0.338-0.807-0.338-0.807l3.779-7.062
	c0.372-0.739,1.208-0.823,1.208-0.823l0.695-0.072c0.156,0,0.129-0.189,0.129-0.189c-0.026-0.707-0.438-1.401-0.438-1.401
	c-0.474-0.959-1.414-1.549-1.414-1.549c-1.142-0.677-2.334-0.545-2.334-0.545c-1.611,0.166-2.381,0.889-2.381,0.889
	c-1.433,0.998-2.119,2.469-2.119,2.469c-0.799,1.598-1.355,4.594-1.355,4.594l-0.647,2.877c-0.181,0.978-0.711,2.154-0.711,2.154
	c-0.64,1.359-1.945,1.695-1.945,1.695c-1.217,0.533-2.447-0.103-2.447-0.103c-1.934-0.998-1.92-3.309-1.92-3.309
	c-0.031-1.898,1.164-3.021,1.164-3.021c1.031-1.1,2.285-1.026,2.285-1.026c1.109,0.047,1.49,0.58,1.49,0.58
	c0.358,0.188,0.469-0.209,0.469-0.209c-0.5-0.843-1.943-0.873-1.943-0.873c-1.748-0.015-2.756,1.266-2.756,1.266
	c-1.367,1.422-1.252,3.297-1.252,3.297c0.129,2.967,2.289,3.81,2.289,3.81c1.402,0.709,2.842,0.116,2.842,0.116
	c1.246-0.307,2.386-1.622,2.386-1.622c0.467-0.48,1.043-1.46,1.043-1.46c0.662-1.116,1.069-3.524,1.069-3.524l0.482-2.635
	c0.664-3.314,1.631-4.338,1.631-4.338c0.545-0.701,1.295-0.886,1.295-0.886c1.08-0.393,2.008-0.164,2.008-0.164
	c0.853,0.152,1.478,0.691,1.478,0.691c1.094,1.096,1.182,2.025,1.182,2.025c0.017,0.051-0.024,0.065-0.024,0.065h-4.158
	C97.039,8.485,97.01,8.622,97.01,8.622 M107.297,21.211V0.84c0,0,0.015-0.117-0.121-0.117h-7.319c0,0-0.836-0.097-1.451,0.27
	c0,0-0.443,0.148-0.881,0.966c0,0-0.639,1.426-0.984,1.959c0,0-1.002,1.815-3.34,2.76c0,0-0.688,0.254-1.477,0.453l-2.666,0.692
	c0,0-1.632,0.39-2.49,0.873c0,0-1.246,0.553-2.193,1.709c0,0-1.754,1.76-1.721,5.099c0,0,0.053,2.955,1.465,4.786
	c0,0,0.535,0.605,0.986,0.776c0,0,0.662,0.289,1.336,0.27l20.719-0.004C107.16,21.332,107.281,21.348,107.297,21.211
	 M107.881,22.072l-21.454-0.004c-1.095,0.01-1.861-0.461-1.861-0.461c-0.787-0.312-1.453-1.47-1.453-1.47
	c-1.445-2.349-1.184-5.418-1.184-5.418c0.182-2.879,1.727-4.613,1.727-4.613c1.016-1.277,2.387-1.961,2.387-1.961
	c1.218-0.654,2.554-0.934,2.554-0.934l3.459-0.929c1.327-0.358,1.809-0.774,1.809-0.774c1.725-0.871,2.728-3.261,2.728-3.261
	c0.248-0.539,0.473-0.963,0.473-0.963c0.42-0.733,0.92-0.924,0.92-0.924c0.643-0.447,1.797-0.352,1.797-0.352l8.053,0.002
	c0.211,0,0.195,0.164,0.195,0.164v21.703C108.031,22.059,107.881,22.072,107.881,22.072"/>
</svg>
