<?xml version="1.0" encoding="utf-8"?>
<!-- Generator: Adobe Illustrator 17.1.0, SVG Export Plug-In . SVG Version: 6.00 Build 0)  -->
<!DOCTYPE svg PUBLIC "-//W3C//DTD SVG 1.1//EN" "http://www.w3.org/Graphics/SVG/1.1/DTD/svg11.dtd">
<svg version="1.1" id="Livello_1" xmlns="http://www.w3.org/2000/svg" xmlns:xlink="http://www.w3.org/1999/xlink" x="0px" y="0px"
	 viewBox="0 0 150 30" enable-background="new 0 0 150 30" xml:space="preserve">
<g>
	<path fill="#333333" d="M149.4,1.3h0.2c0.2,0,0.4-0.1,0.4-0.4V0.4c0-0.2-0.1-0.4-0.4-0.4h-12.7c-0.2,0-0.4,0.1-0.4,0.4V1
		c0,0.2,0.2,0.4,0.4,0.4h0.2c1.3,0,1.9,1.2,1.9,2.3V26c0,1.1-0.6,2.3-1.9,2.3h-0.2c-0.2,0-0.4,0.1-0.4,0.4v0.6
		c0,0.2,0.2,0.4,0.4,0.4h12.7c0.2,0,0.4-0.1,0.4-0.4v-0.6c0-0.2-0.1-0.4-0.4-0.4h-0.2c-1.2,0-1.9-1.2-1.9-2.4V3.7
		C147.6,2.5,148.1,1.3,149.4,1.3"/>
	<path fill="#333333" d="M106.3,0h-9.2c-0.2,0-0.4,0.1-0.4,0.4V1c0,0.2,0.2,0.4,0.4,0.4h0.2C99.5,1.5,99.6,3,99,5l-4.7,12.5
		c-0.1,0.1-0.2,0.2-0.4,0.2c-0.2,0-0.4-0.1-0.4-0.2l-4-13.8c-0.5-1.9,0.2-2.2,1.2-2.4h0.1c0.1,0,0.4-0.2,0.4-0.4V0.5
		c0-0.2-0.2-0.4-0.4-0.4H79.4c-0.2,0-0.4,0.1-0.4,0.4v0.6c0,0.2,0.2,0.4,0.4,0.4h0.4c0.6,0,1,0.7,1.5,2.4l0.8,3.2
		c0.1,0.4,0.1,0.5,0,0.7l-2.7,9.6c0,0.1-0.2,0.4-0.4,0.4c-0.1,0-0.4-0.1-0.4-0.2l-5-13.8c-0.7-2,0.4-2.3,0.8-2.4h0.1
		c0.2,0,0.4-0.2,0.4-0.4V0.5c0-0.2-0.2-0.4-0.4-0.4H62.8c-0.2,0-0.4,0.1-0.4,0.4v0.6c0,0.2,0.1,0.4,0.4,0.4h0.4
		c0.7,0,1.3,0.8,1.8,2.4l9.7,25.7c0.1,0.2,0.4,0.4,0.6,0.4h4.2c0.2,0,0.5-0.2,0.6-0.5L84,15.5l0.2-0.1l0.2,0.2l3.9,13.9
		c0.1,0.2,0.4,0.5,0.6,0.5h4.1c0.2,0,0.5-0.1,0.6-0.4L103.1,5c0.7-2,1.2-3.1,3-3.4h0.2c0.1,0,0.4-0.2,0.4-0.4V0.8
		C106.7,0.2,106.4,0,106.3,0"/>
	<path fill="#333333" d="M31.2,28.5H31c-1,0-1.7-1.1-2.7-2.4l-11-14.5l-0.1-0.4c0-0.1,0.1-0.2,0.1-0.4l7.1-6.4
		c1.1-1.1,3.5-3.1,5.1-3.1h0.4H30c0.2,0,0.4-0.2,0.4-0.4V0.5c0-0.2-0.1-0.4-0.4-0.4H17.7c-0.2,0-0.4,0.1-0.4,0.4v0.6
		c0,0.2,0.1,0.4,0.4,0.4H18c1.7,0,2.3,1.7,1.2,2.6l-8.5,7.7l-0.2,0.1c-0.2,0-0.4-0.1-0.4-0.4V3.7c0-1.1,0.1-2.4,1.6-2.4H12
		c0.2,0,0.4-0.1,0.4-0.4V0.4C12.3,0.1,12.2,0,12,0H0.4C0.1,0,0,0.1,0,0.4V1c0,0.2,0.2,0.4,0.4,0.4c1.5,0,1.8,0.7,1.8,2.3V26
		c0,1,0,2.3-1.7,2.3H0.4c-0.2,0-0.4,0.1-0.4,0.4v0.5c0,0.2,0.2,0.4,0.4,0.4H12c0.2,0,0.4-0.1,0.4-0.4v-0.6c0-0.2-0.1-0.4-0.4-0.4
		h-0.4c-1.6,0-1.6-1.6-1.6-2.3v-9.8c0-0.2,0.2-0.4,0.4-0.4s0.2,0.1,0.4,0.1l7.3,10c0.7,1,0.2,2.3-0.8,2.4h-0.4
		c-0.2,0-0.4,0.1-0.4,0.4v0.6c0,0.2,0.1,0.4,0.4,0.4h14.3c0.2,0,0.4-0.1,0.4-0.4v-0.6C31.6,28.6,31.5,28.5,31.2,28.5"/>
	<path fill="#333333" d="M50.6,17.3h-6.4c-0.2,0-0.5-0.2-0.5-0.5v-0.1c0,0,2.4-6.5,3-8c0-0.1,0.2-0.2,0.4-0.2c0.1,0,0.2,0.1,0.4,0.2
		c0.7,1.6,3.4,8,3.4,8v0.2C51.1,17,50.8,17.3,50.6,17.3 M66.2,28.5H66c-0.8-0.1-1.8-1-2.4-2.4l-11-25.7C52.4,0.1,52.2,0,51.9,0h-5.5
		c-0.2,0-0.5,0.1-0.6,0.4l-9.3,24.3c-0.6,1.3-1.7,3.5-3.1,3.7h-0.2c-0.2,0-0.4,0.1-0.4,0.4v0.5c0,0.2,0.2,0.4,0.4,0.4h10.5
		c0.2,0,0.4-0.1,0.4-0.4v-0.6c0-0.2-0.2-0.4-0.4-0.4h-0.1c-2.5,0-3.4-2.6-2.8-4.1l1.3-3.5c0.1-0.2,0.4-0.4,0.6-0.4h9.6
		c0.2,0,0.5,0.1,0.6,0.4l2.3,5.4c0.4,1.1-0.7,2.3-2.3,2.3h-0.3c-0.2,0-0.4,0.2-0.4,0.4v0.5c0,0.2,0.1,0.4,0.4,0.4h13.6
		c0.2,0,0.4-0.1,0.4-0.4v-0.5C66.7,28.7,66.5,28.5,66.2,28.5"/>
	<path fill="#333333" d="M118.8,17.3h-6.3c-0.2,0-0.5-0.2-0.5-0.5v-0.1c0,0,2.4-6.5,3-8c0.1-0.1,0.2-0.2,0.4-0.2
		c0.1,0,0.4,0.1,0.4,0.2c0.7,1.6,3.4,8,3.4,8v0.2C119.3,17,119,17.3,118.8,17.3 M134.4,28.5h-0.2c-0.8-0.1-1.8-1-2.4-2.4l-11-25.7
		c-0.1-0.2-0.4-0.4-0.6-0.4h-5.5c-0.2,0-0.5,0.1-0.6,0.4l-9.3,24.3c-0.6,1.3-1.6,3.5-3.1,3.7h-0.2c-0.2,0-0.4,0.1-0.4,0.4v0.5
		c0,0.2,0.1,0.4,0.4,0.4h10.5c0.2,0,0.4-0.1,0.4-0.4v-0.6c0-0.2-0.1-0.4-0.4-0.4h-0.2c-2.5,0-3.3-2.6-2.8-4.1l1.3-3.5
		c0.1-0.2,0.4-0.4,0.6-0.4h9.6c0.2,0,0.5,0.1,0.6,0.4l2.3,5.4c0.4,1.1-0.7,2.3-2.3,2.3h-0.1c-0.2,0-0.4,0.2-0.4,0.4v0.5
		c0,0.2,0.2,0.4,0.4,0.4h13.5c0.2,0,0.4-0.1,0.4-0.4v-0.5C134.9,28.7,134.6,28.5,134.4,28.5"/>
</g>
</svg>
