<?xml version="1.0" encoding="utf-8"?>
<!-- Generator: Adobe Illustrator 17.0.2, SVG Export Plug-In . SVG Version: 6.00 Build 0)  -->
<!DOCTYPE svg PUBLIC "-//W3C//DTD SVG 1.1//EN" "http://www.w3.org/Graphics/SVG/1.1/DTD/svg11.dtd">
<svg version="1.1" id="Livello_1" xmlns="http://www.w3.org/2000/svg" xmlns:xlink="http://www.w3.org/1999/xlink" x="0px" y="0px"
	 width="123.679px" height="38px" viewBox="0 26.925 123.679 38" enable-background="new 0 26.925 123.679 38" xml:space="preserve"
	>
<g>
	<path fill="#333333" d="M123.524,34.04h0.155c0.179,0,0.321-0.148,0.321-0.33v-0.454c0-0.185-0.143-0.331-0.321-0.331h-10.477
		c-0.18,0-0.334,0.146-0.334,0.331v0.454c0,0.182,0.154,0.33,0.334,0.33h0.154c1.131,0,1.555,0.968,1.555,1.928v18.708
		c0,0.937-0.513,1.903-1.555,1.927h-0.154c-0.18,0-0.334,0.146-0.334,0.329v0.453c0,0.185,0.154,0.334,0.334,0.334h10.477
		c0.179,0,0.321-0.149,0.321-0.334v-0.453c0-0.184-0.143-0.329-0.321-0.329h-0.155c-1.002-0.042-1.581-0.975-1.581-1.983V35.968
		C121.969,34.975,122.355,34.04,123.524,34.04"/>
	<path fill="#333333" d="M87.868,32.925h-7.622c-0.18,0-0.335,0.146-0.335,0.331v0.454c0,0.182,0.155,0.33,0.335,0.33H80.4
		c1.76,0.182,1.939,1.414,1.389,3.121l-3.896,10.402c-0.051,0.13-0.166,0.218-0.309,0.218c-0.154,0-0.283-0.103-0.321-0.241
		l-3.2-11.52c-0.424-1.621,0.18-1.786,1.029-1.983l0.117-0.016c0.14-0.032,0.27-0.165,0.27-0.325v-0.441
		c-0.001-0.185-0.156-0.331-0.335-0.331h-9.487c-0.179,0-0.334,0.146-0.334,0.331v0.454c0,0.182,0.155,0.33,0.334,0.33h0.361
		c0.463,0,0.835,0.614,1.209,1.983l0.719,2.718c0.077,0.254,0.063,0.419,0.012,0.63l-2.171,8.01
		c-0.038,0.144-0.167,0.252-0.321,0.252c-0.143,0-0.27-0.095-0.31-0.224l-4.178-11.384c-0.567-1.673,0.348-1.926,0.746-1.983
		l0.115-0.02c0.155-0.029,0.27-0.164,0.27-0.321v-0.444c-0.001-0.185-0.155-0.331-0.335-0.331h-9.847
		c-0.193,0-0.334,0.146-0.334,0.331v0.454c0,0.182,0.14,0.33,0.334,0.33h0.321c0.618,0,1.055,0.653,1.518,1.983l8.045,21.357
		c0.078,0.198,0.272,0.34,0.49,0.34h3.534c0.244,0,0.45-0.17,0.501-0.393l3.173-11.636l0.206-0.145l0.193,0.151l3.239,11.636
		c0.064,0.218,0.258,0.386,0.502,0.386h3.379c0.231,0,0.41-0.145,0.489-0.343l7.775-20.486c0.604-1.736,1.003-2.585,2.481-2.848
		l0.155-0.016c0.141-0.032,0.257-0.165,0.257-0.325v-0.443C88.188,33.072,88.049,32.925,87.868,32.925"/>
	<path fill="#333333" d="M25.887,56.603h-0.229c-0.823,0-1.415-0.885-2.249-1.978l-9.076-12.06l-0.092-0.252
		c0-0.12,0.051-0.229,0.13-0.303l5.925-5.327c0.94-0.899,2.905-2.571,4.205-2.623l0.269-0.02l0.091-0.009
		c0.155-0.022,0.272-0.159,0.272-0.325v-0.446c0-0.184-0.143-0.33-0.321-0.33h-10.08c-0.193,0-0.335,0.146-0.335,0.33v0.453
		c0,0.182,0.141,0.33,0.335,0.33h0.295c1.376,0,1.877,1.36,1.002,2.241l-7.069,6.423l-0.218,0.086c-0.18,0-0.334-0.148-0.334-0.331
		v-6.439c0-0.866,0.129-1.979,1.272-1.979h0.217c0.193,0,0.336-0.148,0.336-0.33v-0.453c0-0.184-0.143-0.33-0.336-0.33H0.386
		c-0.181,0-0.335,0.146-0.335,0.33v0.454c0,0.184,0.154,0.329,0.335,0.329c1.157,0.026,1.492,0.573,1.492,1.895V54.68
		c0,0.846-0.026,1.923-1.441,1.923l-0.102,0.004C0.154,56.607,0,56.757,0,56.938v0.448c0,0.185,0.154,0.334,0.335,0.334h9.614
		c0.18,0,0.321-0.149,0.321-0.334v-0.453c0-0.184-0.141-0.329-0.321-0.329H9.718c-1.272,0-1.311-1.286-1.311-1.938v-8.151
		c0-0.186,0.154-0.331,0.334-0.331c0.117,0,0.206,0.055,0.272,0.135l6.04,8.308c0.578,0.841,0.205,1.939-0.694,1.978h-0.309
		c-0.18,0-0.321,0.145-0.321,0.329v0.453c0,0.185,0.141,0.334,0.321,0.334h11.837c0.181,0,0.321-0.149,0.321-0.334v-0.453
		C26.209,56.749,26.069,56.603,25.887,56.603"/>
	<path fill="#333333" d="M41.943,47.283h-5.296c-0.206,0-0.373-0.169-0.373-0.374l0.026-0.131c0.011-0.017,2.03-5.369,2.532-6.707
		c0.05-0.119,0.166-0.205,0.309-0.205c0.129,0,0.244,0.082,0.295,0.193c0.552,1.295,2.841,6.692,2.841,6.698l0.037,0.151
		C42.314,47.115,42.148,47.283,41.943,47.283 M54.833,56.607l-0.18-0.002c-0.668-0.073-1.463-0.83-2.03-1.983l-9.14-21.384
		c-0.076-0.182-0.255-0.312-0.474-0.312h-4.462c-0.218,0-0.412,0.138-0.475,0.331l-7.699,20.21c-0.515,1.125-1.352,2.94-2.624,3.137
		l-0.166,0.006c-0.18,0-0.335,0.148-0.335,0.331v0.449c0,0.185,0.155,0.332,0.335,0.332h8.689c0.18,0,0.334-0.148,0.334-0.332
		v-0.451c0-0.181-0.154-0.331-0.334-0.331l-0.141-0.002c-2.094,0-2.75-2.184-2.289-3.409l1.106-2.921
		c0.076-0.193,0.269-0.327,0.487-0.327h7.867c0.218,0,0.399,0.129,0.476,0.316l1.928,4.481c0.294,0.918-0.579,1.859-1.877,1.859
		l-0.155,0.002c-0.18,0-0.32,0.15-0.32,0.331v0.448c0,0.185,0.14,0.334,0.32,0.334h11.158c0.193,0,0.334-0.149,0.334-0.334v-0.448
		C55.168,56.757,55.027,56.607,54.833,56.607"/>
	<path fill="#333333" d="M98.24,47.283h-5.284c-0.206,0-0.372-0.169-0.372-0.374l0.012-0.131c0.014-0.017,2.031-5.369,2.533-6.707
		c0.051-0.119,0.166-0.205,0.308-0.205s0.257,0.082,0.308,0.193c0.553,1.295,2.828,6.692,2.841,6.698l0.026,0.151
		C98.613,47.115,98.446,47.283,98.24,47.283 M111.146,56.607l-0.193-0.002c-0.667-0.073-1.464-0.83-2.019-1.983l-9.138-21.384
		c-0.091-0.182-0.27-0.312-0.476-0.312h-4.459c-0.218,0-0.413,0.138-0.49,0.331l-7.687,20.21c-0.513,1.125-1.349,2.94-2.623,3.137
		l-0.179,0.006c-0.18,0-0.321,0.148-0.321,0.331v0.449c0,0.185,0.141,0.332,0.321,0.332h8.701c0.179,0,0.321-0.148,0.321-0.332
		v-0.451c0-0.181-0.143-0.331-0.321-0.331l-0.155-0.002c-2.082,0-2.737-2.184-2.287-3.409l1.116-2.921
		c0.078-0.193,0.258-0.327,0.476-0.327h7.879c0.205,0,0.399,0.129,0.475,0.316l1.916,4.481c0.295,0.918-0.567,1.859-1.876,1.859
		l-0.143,0.002c-0.18,0-0.334,0.15-0.334,0.331v0.448c0,0.185,0.154,0.334,0.334,0.334h11.159c0.179,0,0.334-0.149,0.334-0.334
		v-0.448C111.48,56.757,111.325,56.607,111.146,56.607"/>
</g>
</svg>
