<?xml version="1.0" encoding="utf-8"?>
<!-- Generator: Adobe Illustrator 17.0.2, SVG Export Plug-In . SVG Version: 6.00 Build 0)  -->
<!DOCTYPE svg PUBLIC "-//W3C//DTD SVG 1.1//EN" "http://www.w3.org/Graphics/SVG/1.1/DTD/svg11.dtd">
<svg version="1.1" id="Livello_1" xmlns="http://www.w3.org/2000/svg" xmlns:xlink="http://www.w3.org/1999/xlink" x="0px" y="0px"
	 width="124px" height="38px" viewBox="-0.174 -40.331 124 38" enable-background="new -0.174 -40.331 124 38" xml:space="preserve"
	>
<g>
	<path fill="#333333" d="M32.357-16.501c0,5.346-0.288,7.536-4.209,7.536c-3.36,0-4.633-2.139-4.633-6.467V-30.3h-7.139h-0.091
		h-4.899v-1.579c0-2.189,0.815-3.004,2.749-3.004c0.917,0,1.782,0.051,2.648,0.152v-5.397c-1.222-0.051-2.546-0.204-3.819-0.204
		c-5.907,0-8.809,3.361-8.809,7.995v2.036h-4.328v4.837h4.328v21.488h7.231v-21.488h4.899v11.355c0,6.518,1.935,10.846,9.624,10.846
		c3.055,0,4.82-0.497,6.653-3.451h0.153v2.738h6.874V-30.3h-7.23V-16.501z"/>
	<path fill="#333333" d="M68.909-8.711c-4.532,0-6.008-4.532-6.008-8.3c0-3.869,1.528-8.554,6.161-8.554
		c3.005,0,4.889,1.579,5.348,4.532h7.077c-0.457-6.721-6.161-9.98-12.374-9.98c-5.367,0-9.29,2.386-11.469,6.188l0.047-6.188
		c-3.513,0-6.857,2.291-8.18,5.601h-0.102V-30.3h-6.874v26.325h7.23V-15.84c0-4.545,2.489-8.297,7.582-8.439
		c-1.101,2.151-1.676,4.71-1.676,7.522c0,7.892,5.346,13.493,13.29,13.493c6.925,0,11.762-3.819,12.68-10.794h-6.976
		C74.205-10.849,72.27-8.711,68.909-8.711z"/>
	<path fill="#333333" d="M123.826-25.463V-30.3h-5.296v-7.892h-7.23v7.892h-8.962c-1.232-0.464-2.735-0.712-4.57-0.712
		c-2.698,0-5.856,1.425-7.689,4.379h-0.152v-13.697h-7.23v36.356h7.23v-13.799c0-5.346,1.68-7.536,5.601-7.536
		c3.36,0,4.633,2.139,4.633,6.467v14.868h7.23v-16.192c0-1.99-0.182-3.774-0.652-5.296h4.56v15.53c0,5.245,3.869,6.263,8.299,6.263
		c1.426,0,3.004-0.051,4.227-0.255v-5.652c-0.764,0.152-1.477,0.204-2.241,0.204c-2.444,0-3.054-0.611-3.054-3.055v-13.035H123.826z
		"/>
</g>
</svg>
